<?xml version="1.0" encoding="UTF-8" standalone="no"?>
<svg
   xmlns:dc="http://purl.org/dc/elements/1.1/"
   xmlns:cc="http://creativecommons.org/ns#"
   xmlns:rdf="http://www.w3.org/1999/02/22-rdf-syntax-ns#"
   xmlns:svg="http://www.w3.org/2000/svg"
   xmlns="http://www.w3.org/2000/svg"
   xmlns:xlink="http://www.w3.org/1999/xlink"
   xmlns:sodipodi="http://sodipodi.sourceforge.net/DTD/sodipodi-0.dtd"
   xmlns:inkscape="http://www.inkscape.org/namespaces/inkscape"
   inkscape:version="1.0 (4035a4fb49, 2020-05-01)"
   sodipodi:docname="bg1.svg"
   version="1.1"
   viewBox="0 0 1096.46 805.97"
   height="805.97"
   width="1096.46"
   data-name="Layer 1"
   id="b1711ec6-bb87-4a18-ab4e-434cd24277cb">
  <metadata
     id="metadata316">
    <rdf:RDF>
      <cc:Work
         rdf:about="">
        <dc:format>image/svg+xml</dc:format>
        <dc:type
           rdf:resource="http://purl.org/dc/dcmitype/StillImage" />
      </cc:Work>
    </rdf:RDF>
  </metadata>
  <sodipodi:namedview
     inkscape:document-rotation="0"
     inkscape:snap-global="false"
     inkscape:current-layer="layer1"
     inkscape:window-maximized="1"
     inkscape:window-y="34"
     inkscape:window-x="0"
     inkscape:cy="537.88068"
     inkscape:cx="339.97097"
     inkscape:zoom="0.45254835"
     showgrid="false"
     id="namedview314"
     inkscape:window-height="704"
     inkscape:window-width="1366"
     inkscape:pageshadow="2"
     inkscape:pageopacity="0"
     guidetolerance="10"
     gridtolerance="10"
     objecttolerance="10"
     borderopacity="1"
     bordercolor="#666666"
     pagecolor="#ffffff" />
  <defs
     id="defs9">
    <linearGradient
       id="linearGradient1057"
       inkscape:collect="always">
      <stop
         id="stop1053"
         offset="0"
         style="stop-color:#de69d5;stop-opacity:1" />
      <stop
         id="stop1055"
         offset="1"
         style="stop-color:#ff1bc5;stop-opacity:1" />
    </linearGradient>
    <linearGradient
       id="linearGradient1016"
       inkscape:collect="always">
      <stop
         id="stop1012"
         offset="0"
         style="stop-color:#ff4ef9;stop-opacity:1" />
      <stop
         id="stop1014"
         offset="1"
         style="stop-color:#6438d3;stop-opacity:0.96894407" />
    </linearGradient>
    <linearGradient
       gradientTransform="matrix(1,0,0,1.0177556,-51.769999,-58.053345)"
       gradientUnits="userSpaceOnUse"
       y2="548.12"
       x2="699.46"
       y1="848.78"
       x1="699.46"
       id="a89cccf1-5da0-4e25-a4c3-8abfdc3a3dc7">
      <stop
         id="stop2"
         stop-opacity="0.25"
         stop-color="gray"
         offset="0" />
      <stop
         id="stop4"
         stop-opacity="0.12"
         stop-color="gray"
         offset="0.54" />
      <stop
         id="stop6"
         stop-opacity="0.1"
         stop-color="gray"
         offset="1" />
    </linearGradient>
    <linearGradient
       gradientTransform="matrix(1.0900257,0,0,1.0311811,-120.9962,-72.828343)"
       gradientUnits="userSpaceOnUse"
       y2="500.55496"
       x2="541.78192"
       y1="457.02942"
       x1="581.12695"
       id="linearGradient1010"
       xlink:href="#linearGradient1016"
       inkscape:collect="always" />
    <linearGradient
       gradientUnits="userSpaceOnUse"
       y2="450.89996"
       x2="587.19348"
       y1="463.92014"
       x1="573.25714"
       id="linearGradient1059"
       xlink:href="#linearGradient1057"
       inkscape:collect="always" />
    <linearGradient
       gradientTransform="matrix(1.0900257,0,0,1.0311811,-120.9962,-72.828343)"
       y2="450.89996"
       x2="587.19348"
       y1="463.92014"
       x1="573.25714"
       gradientUnits="userSpaceOnUse"
       id="linearGradient2690"
       xlink:href="#linearGradient1057"
       inkscape:collect="always" />
  </defs>
  <title
     id="title11">social dashboard</title>
  <g
     inkscape:label="Layer 1"
     id="layer1"
     inkscape:groupmode="layer">
    <ellipse
       style="opacity:0.31300001;fill:#373748"
       id="ellipse35"
       ry="9.5500002"
       rx="93.68"
       cy="748.29999"
       cx="1002.78" />
    <g
       style="fill:#37c837"
       transform="matrix(-1.1996259,0,0,1,1850.4378,-24.014076)"
       id="g2633">
      <path
         inkscape:connector-curvature="0"
         d="m 867.49,134.73 c 0,0 -84.2,-5.08 -74.27,53.92 0,0 -2,10.43 7.48,15.16 0,0 0.15,-4.37 8.63,-2.89 a 38.44,38.44 0 0 0 9.15,0.44 19,19 0 0 0 11.19,-4.61 v 0 c 0,0 23.66,-9.78 32.87,-48.46 0,0 6.81,-8.44 6.54,-10.61 l -14.21,6.07 c 0,0 4.85,10.25 1,18.77 0,0 -0.46,-18.4 -3.19,-18 -0.56,0.08 -7.39,3.55 -7.39,3.55 0,0 8.36,17.85 2,30.83 0,0 2.39,-22 -4.66,-29.54 l -10,5.84 c 0,0 9.76,18.44 3.15,33.49 0,0 1.69,-23.08 -5.25,-32.07 l -9.06,7.07 c 0,0 9.17,18.17 3.58,30.65 0,0 -0.74,-26.86 -5.55,-28.89 0,0 -7.93,7 -9.14,9.86 0,0 6.28,13.2 2.39,20.16 0,0 -2.39,-17.9 -4.35,-18 0,0 -7.9,11.86 -8.72,20 0,0 0.34,-12.09 6.8,-21.12 0,0 -7.63,1.31 -12.09,6.26 0,0 1.23,-8.38 14,-9.12 0,0 6.53,-9 8.28,-9.54 0,0 -12.75,-1.07 -20.48,2.36 0,0 6.8,-7.91 22.82,-4.31 l 8.94,-7.31 c 0,0 -16.78,-2.29 -23.9,0.24 0,0 8.2,-7 26.32,-1.9 l 9.74,-5.82 c 0,0 -14.31,-3.09 -22.84,-2 0,0 9,-4.85 25.69,0.41 l 7,-3.13 c 0,0 -10.49,-2.06 -13.56,-2.39 -3.07,-0.33 -3.23,-1.17 -3.23,-1.17 a 36.35,36.35 0 0 1 19.83,2.26 c 0,0 14.74,-5.53 14.49,-6.46 z"
         transform="translate(-51.77,-49.02)"
         id="path39"
         style="fill:#37c837" />
      <path
         inkscape:connector-curvature="0"
         d="m 781.13,108.49 c 0,0 -38,-2.29 -33.56,24.37 0,0 -0.89,4.71 3.38,6.85 0,0 0.07,-2 3.9,-1.31 a 17.51,17.51 0 0 0 4.13,0.2 8.62,8.62 0 0 0 5.06,-2.08 v 0 c 0,0 10.69,-4.42 14.85,-21.9 0,0 3.08,-3.81 3,-4.79 l -6.42,2.74 c 0,0 2.19,4.63 0.46,8.48 0,0 -0.2,-8.31 -1.44,-8.12 -0.25,0 -3.33,1.61 -3.33,1.61 0,0 3.77,8.06 0.92,13.93 0,0 1.08,-9.94 -2.1,-13.35 l -4.52,2.64 c 0,0 4.41,8.33 1.42,15.13 0,0 0.77,-10.43 -2.37,-14.49 l -4.1,3.2 c 0,0 4.15,8.21 1.62,13.85 0,0 -0.33,-12.14 -2.5,-13.06 0,0 -3.59,3.16 -4.13,4.46 0,0 2.83,6 1.07,9.11 0,0 -1.08,-8.09 -2,-8.13 0,0 -3.57,5.36 -3.94,9 a 19.46,19.46 0 0 1 3.07,-9.54 10.71,10.71 0 0 0 -5.46,2.83 c 0,0 0.55,-3.79 6.34,-4.12 0,0 2.95,-4.07 3.74,-4.32 0,0 -5.76,-0.48 -9.25,1.07 0,0 3.07,-3.57 10.31,-2 l 4,-3.3 c 0,0 -7.58,-1 -10.8,0.11 0,0 3.71,-3.16 11.89,-0.86 l 4.4,-2.63 c 0,0 -6.46,-1.39 -10.31,-0.89 0,0 4.06,-2.19 11.6,0.18 l 3.15,-1.41 c 0,0 -4.73,-0.93 -6.12,-1.08 -1.39,-0.15 -1.46,-0.53 -1.46,-0.53 a 16.36,16.36 0 0 1 8.89,1 c 0,0 6.72,-2.43 6.61,-2.85 z"
         transform="translate(-51.77,-49.02)"
         id="path41"
         style="fill:#37c837" />
    </g>
    <path
       inkscape:connector-curvature="0"
       id="path81"
       d="m 971.84,732.59 c 4.54,0.59 9.25,1 13.6,-0.46 0.67,-0.21 1.44,-0.67 1.35,-1.36 a 1.6,1.6 0 0 0 -0.31,-0.66 42.41,42.41 0 0 1 -4.13,-7.83 0.64,0.64 0 0 0 -0.25,-0.35 0.61,0.61 0 0 0 -0.44,0 c -2,0.52 -3.74,1.82 -5.74,2.37 a 8.2,8.2 0 0 1 -3.12,0.24 c -0.9,-0.1 -2.14,-0.85 -2.95,-0.76 0.5,2.97 1.64,5.78 1.99,8.81 z"
       style="fill:#38d39f" />
    <path
       inkscape:connector-curvature="0"
       id="path83"
       d="m 1057.77,724.98 c 3,-2 6.1,-4.22 7.87,-7.39 a 1.21,1.21 0 0 0 0.21,-0.63 1.3,1.3 0 0 0 -0.25,-0.62 25.62,25.62 0 0 0 -6.39,-6.9 18.89,18.89 0 0 0 -3.57,3.29 c -0.75,0.79 -2.83,2.09 -2.85,3.27 0,0.71 0.79,1.48 1.16,2 0.5,0.74 1,1.5 1.43,2.26 0.23,0.46 2.61,4.6 2.39,4.72 z"
       style="fill:#38d39f" />
    <path
       inkscape:connector-curvature="0"
       id="path85"
       d="m 989.64,741.77 a 3,3 0 0 1 -0.54,2 2.67,2.67 0 0 1 -1.15,0.67 c -6.36,2.27 -13.68,-0.57 -20,1.68 -1.31,0.46 -2.54,1.12 -3.85,1.56 a 20.85,20.85 0 0 1 -4.77,0.85 c -2.25,0.22 -4.5,0.35 -6.75,0.41 a 16.33,16.33 0 0 1 -5.08,-0.44 6.15,6.15 0 0 1 -3.9,-3.09 3,3 0 0 1 -0.19,-2.2 2.49,2.49 0 0 1 0.41,-0.71 6.09,6.09 0 0 1 1.5,-1.21 l 2.34,-1.51 a 15.63,15.63 0 0 1 3.54,-1.88 c 0.92,-0.3 1.91,-0.43 2.84,-0.7 3.29,-1 5.79,-3.57 8.12,-6.07 l 3.18,-3.39 a 3.11,3.11 0 0 1 1.1,-0.88 3,3 0 0 1 1.36,-0.14 18.37,18.37 0 0 1 8.67,2.92 12.51,12.51 0 0 0 2.14,1.26 7.64,7.64 0 0 0 6,-0.75 c 0.82,-0.43 0.64,-0.7 1,-1.47 0.36,-0.77 1.18,-1.27 1.9,-0.56 a 2.09,2.09 0 0 1 0.45,0.86 c 0.7,2.27 0.43,4.7 0.43,7.07 a 3.14,3.14 0 0 0 0.14,1.1 6.69,6.69 0 0 0 0.62,1 1.58,1.58 0 0 1 0.13,0.26 6.94,6.94 0 0 1 0.36,3.36 z"
       style="fill:#514e7f" />
    <path
       inkscape:connector-curvature="0"
       id="path87"
       d="m 989.64,741.77 a 3,3 0 0 1 -0.54,2 2.67,2.67 0 0 1 -1.15,0.67 c -6.36,2.27 -13.68,-0.57 -20,1.68 -1.31,0.46 -2.54,1.12 -3.85,1.56 a 20.85,20.85 0 0 1 -4.77,0.85 c -2.25,0.22 -4.5,0.35 -6.75,0.41 a 16.33,16.33 0 0 1 -5.08,-0.44 6.15,6.15 0 0 1 -3.9,-3.09 3,3 0 0 1 -0.19,-2.2 2.49,2.49 0 0 1 0.41,-0.71 c 0.38,0.78 0.65,1.8 0.88,2.17 a 4.44,4.44 0 0 0 3,2.15 7.61,7.61 0 0 0 2.71,-0.35 c 5.76,-1.43 11.88,-1.45 17.4,-3.61 a 41.57,41.57 0 0 1 5.7,-2.19 45.28,45.28 0 0 1 6.16,-0.5 c 3.25,-0.26 6.39,-1.24 9.6,-1.75 a 6.94,6.94 0 0 1 0.37,3.35 z"
       style="fill:#464353" />
    <path
       inkscape:connector-curvature="0"
       id="path89"
       d="m 1072.29,724.59 c -0.3,2.41 -1.83,4.49 -3.51,6.25 a 40.07,40.07 0 0 0 -4.9,5.37 c -1.66,2.52 -2.39,5.63 -4.53,7.76 a 12.27,12.27 0 0 1 -2.72,2 18.8,18.8 0 0 1 -3.53,1.62 c -3.19,1 -6.63,0.79 -10,0.55 a 8.89,8.89 0 0 1 -3.16,-0.62 9.18,9.18 0 0 1 -1.34,-0.81 6.36,6.36 0 0 1 -2,-2.07 2.08,2.08 0 0 1 -0.19,-1.49 3.4,3.4 0 0 1 1,-1.46 22.6,22.6 0 0 1 2.41,-2.17 14.31,14.31 0 0 0 3.14,-2.76 9,9 0 0 0 1.21,-2.76 24.73,24.73 0 0 0 0.88,-5.25 16.54,16.54 0 0 1 0.37,-3.51 c 0.51,-1.8 1.85,-3.43 1.69,-5.3 a 1.36,1.36 0 0 1 0.07,-0.8 1.25,1.25 0 0 1 0.63,-0.39 11.4,11.4 0 0 1 3.28,-0.75 3.78,3.78 0 0 1 3,1.19 c 0.47,0.56 0.77,1.34 1.46,1.59 a 2.42,2.42 0 0 0 1,0 c 1.68,-0.17 3.47,-0.38 4.76,-1.47 a 6,6 0 0 0 2,-4.37 c 0,-0.62 -0.28,-1.27 0.67,-1.4 0.73,-0.1 1.3,0.66 1.67,1.16 a 16.32,16.32 0 0 1 3.21,5.85 1.62,1.62 0 0 1 0.61,-0.12 2.61,2.61 0 0 1 2.18,1.12 4.32,4.32 0 0 1 0.64,3.04 z"
       style="fill:#514e7f" />
    <path
       inkscape:connector-curvature="0"
       id="path91"
       d="m 1072.29,724.59 c -0.3,2.41 -1.83,4.49 -3.51,6.25 a 40.07,40.07 0 0 0 -4.9,5.37 c -1.66,2.52 -2.39,5.63 -4.53,7.76 a 12.27,12.27 0 0 1 -2.72,2 18.8,18.8 0 0 1 -3.53,1.62 c -3.19,1 -6.63,0.79 -10,0.55 a 8.89,8.89 0 0 1 -3.16,-0.62 9.18,9.18 0 0 1 -1.34,-0.81 6.36,6.36 0 0 1 -2,-2.07 4.87,4.87 0 0 1 2.06,-0.49 c 1.49,0.08 2.57,1.48 4,1.91 2,0.61 4,-0.82 6.09,-1.31 1.34,-0.31 2.76,-0.22 4.07,-0.65 a 10.05,10.05 0 0 0 3,-1.82 15.23,15.23 0 0 0 3.21,-3.1 19.76,19.76 0 0 0 1.89,-3.76 53.71,53.71 0 0 1 3.81,-7.29 4.84,4.84 0 0 1 0.78,-1 c 0.31,-0.29 0.7,-0.5 1,-0.76 1.37,-1 1.94,-2.77 2.42,-4.41 a 7.38,7.38 0 0 1 0.54,-1.47 2.61,2.61 0 0 1 2.18,1.12 4.32,4.32 0 0 1 0.64,2.98 z"
       style="fill:#464353" />
    <path
       inkscape:connector-curvature="0"
       id="path93"
       d="m 928.63,510.98 a 14.52,14.52 0 0 1 4.08,4.77 c 1,1.88 6.49,16.48 6.17,18.57 1.8,-1.82 8.94,-2.12 10.73,-3.93 0.76,-0.76 4.87,-4.56 5.48,-5.44 0.61,-0.88 5.19,-2.77 5.69,-3.67 1.87,-3.35 -13.26,-16 -11.33,-19.36 a 0.82,0.82 0 0 0 0.16,-0.52 0.8,0.8 0 0 0 -0.25,-0.4 24.08,24.08 0 0 0 -4.38,-3 7,7 0 0 1 -3.34,-4 14.37,14.37 0 0 0 -3.87,2.62 q -4.15,3.55 -8.18,7.28 c -1.06,1 -3.08,2.27 -3.57,3.66 -0.49,1.39 1.6,2.6 2.61,3.42 z"
       style="fill:#a1616a" />
    <path
       inkscape:connector-curvature="0"
       id="path95"
       d="m 953.12,505.59 a 43.84,43.84 0 0 0 -6.48,5.3 c -1.88,1.85 -3.66,4 -4.13,6.61 -0.19,1 -0.16,2.06 -0.32,3.09 -0.67,4.48 -4.56,7.77 -6.27,12 a 20.52,20.52 0 0 0 -1.1,4 47.15,47.15 0 0 0 -0.78,7.86 c 0,2.56 2.46,4.32 3.38,6.71 a 40.7,40.7 0 0 1 1.63,7.27 88.58,88.58 0 0 0 4.09,13.5 c 3.38,9.33 14.33,35.13 17.71,44.47 10.35,-2.6 37.91,-8.57 47.07,-14 3.06,-1.82 -21.2,-22.38 -17.93,-23.8 a 1.65,1.65 0 0 0 0.91,-0.69 1.58,1.58 0 0 0 0,-1 c -3.26,-14.29 -13.49,-26 -18.12,-40 -1.61,-4.83 -4.5,-8.95 -6.7,-13.55 -2,-4.16 -3.05,-8.75 -5.42,-12.7 a 8.49,8.49 0 0 0 -1.73,-2.17 10.61,10.61 0 0 0 -1.92,-1.15 c -1.31,-0.7 -2.57,-1.09 -3.89,-1.75 z"
       style="fill:#514e7f" />
    <circle
       id="circle97"
       r="16.200001"
       cy="493.14999"
       cx="929.17999"
       style="fill:#a1616a" />
    <path
       inkscape:connector-curvature="0"
       id="path99"
       d="m 945.66,500.76 a 5.43,5.43 0 0 1 6.09,-0.87 3,3 0 0 1 1.81,2.92 l 8,0.12 a 16.74,16.74 0 0 1 3.81,0.35 5.54,5.54 0 0 1 3.18,2 c 0.1,0.13 0.21,0.28 0.37,0.31 a 0.64,0.64 0 0 0 0.37,-0.13 7.05,7.05 0 0 1 4,-0.72 c 4.34,0.28 8.36,2.46 11.76,5.17 a 3.81,3.81 0 0 1 1.4,1.71 c 0.28,0.91 0,2.08 0.66,2.7 0,7.55 2.59,14.58 4.32,21.93 0.3,1.31 1.56,2.46 2.43,3.49 a 14,14 0 0 1 2.6,3.88 c 1.46,3.81 -0.56,8.28 0.87,12.11 a 19.5,19.5 0 0 0 2.76,4.35 11.21,11.21 0 0 1 2.35,5.62 c 0.06,0.92 -0.06,1.84 0,2.77 a 16.88,16.88 0 0 0 0.66,3.64 c 0.58,2.21 1.2,4.42 1.84,6.62 1,3.56 2.4,7.41 5.59,9.31 -7.71,1.31 -15.83,2.58 -23.18,-0.09 a 12,12 0 0 1 -2.89,-1.45 c -2.65,-1.89 -3.93,-5.13 -5.07,-8.18 -1.28,-3.43 -2.58,-6.91 -2.84,-10.56 a 12.08,12.08 0 0 0 -0.48,-3.45 c -0.75,-2 -2.73,-3.19 -4.55,-4.29 a 21.89,21.89 0 0 1 -5.47,-4.26 8.5,8.5 0 0 1 -2.22,-6.4 c 0.14,-1.13 0.58,-2.22 0.63,-3.36 a 2.69,2.69 0 0 0 -1.56,-2.77 c -5.61,-1.7 -8.29,-8.34 -9.54,-14.07 a 44.89,44.89 0 0 1 -0.72,-9 l -0.07,-5.79 a 7.68,7.68 0 0 1 -2.52,-5.54 6.22,6.22 0 0 0 0,-1.83 5.13,5.13 0 0 0 -1.28,-2 16.9,16.9 0 0 1 -3.11,-4.24 z"
       style="fill:#464353" />
    <path
       inkscape:connector-curvature="0"
       id="path101"
       d="m 928.4,519.29 c -0.18,1.81 0.23,3.66 -0.18,5.44 -0.16,0.68 -0.43,1.33 -0.63,2 a 11.8,11.8 0 0 0 0.75,7.62 42.35,42.35 0 0 0 3.89,6.75 10.28,10.28 0 0 1 1.25,2.33 12.07,12.07 0 0 1 0.48,2.67 81.32,81.32 0 0 0 1.91,10.74 c 0.76,3.08 1.75,6.19 3.78,8.63 a 2.62,2.62 0 0 0 1.56,1.06 2.82,2.82 0 0 0 1.33,-0.28 l 4.14,-1.57 a 2.89,2.89 0 0 0 1,-0.52 2.51,2.51 0 0 0 0.58,-1.62 c 0.29,-3.34 -0.71,-6.65 -1.82,-9.81 -3.36,-9.54 -7.82,-18.73 -10,-28.6 -0.61,-2.76 -0.93,-7 -2.94,-9.15 -0.83,-0.9 -0.55,-0.52 -1.54,0 a 12.54,12.54 0 0 0 -1.45,0.77 4.75,4.75 0 0 0 -2.11,3.54 z"
       style="fill:#464353" />
    <path
       inkscape:connector-curvature="0"
       id="path103"
       d="M 1007.47,578.66"
       style="fill:#464353" />
    <path
       inkscape:connector-curvature="0"
       id="path105"
       d="m 940.88,537.39 q 1.65,8.73 3.37,17.47 l 16.08,-4.22 c 0.13,-1.68 -0.77,-3.24 -1.39,-4.81 -1.47,-3.68 -1.5,-7.77 -2.69,-11.55 -0.9,-2.88 -2.46,-5.53 -3.3,-8.43 -0.49,-1.68 -0.73,-3.44 -1.21,-5.13 a 39.19,39.19 0 0 0 -1.89,-4.89 31.16,31.16 0 0 0 -3.51,-6.51 c -2.06,0.77 -4.25,1.66 -5.42,3.51 a 7.46,7.46 0 0 0 -1,3.46 c -0.28,3.62 1,7.25 0.59,10.83 a 32,32 0 0 0 0.37,10.27 z"
       style="fill:#38d39f" />
    <path
       inkscape:connector-curvature="0"
       id="path107"
       d="m 960.6,614.98 c 0.9,3.44 -0.41,7 -1.47,10.42 a 80.92,80.92 0 0 0 -3.28,15.69 13,13 0 0 1 -0.81,4 37.42,37.42 0 0 1 -1.95,3.2 c -1.62,2.86 -1.58,6.36 -1.23,9.63 0.23,2.16 0.58,4.31 1,6.44 0.53,2.59 1.18,5.31 0.42,7.84 1.27,-0.28 2.14,1.36 2.09,2.67 -0.05,1.31 -0.51,2.71 0.11,3.86 1.58,0.57 1.6,2.74 1.55,4.41 a 37.19,37.19 0 0 0 1.09,8.64 q 3.58,17.19 7.6,34.29 c 5.79,1.8 12.55,3.67 18.07,1.18 a 3.55,3.55 0 0 0 2.29,-2.3 4.14,4.14 0 0 0 -0.22,-1.77 l -2.62,-9.52 a 17.53,17.53 0 0 1 -0.94,-7 c 0.26,-1.77 1,-3.67 0.16,-5.22 -0.3,-0.53 -0.76,-1 -1.1,-1.46 -1.38,-2 -0.66,-4.69 -0.54,-7.13 a 5.58,5.58 0 0 0 -0.12,-1.63 8.56,8.56 0 0 0 -0.77,-1.79 27.33,27.33 0 0 1 -3,-13.6 3.34,3.34 0 0 0 -0.24,-1.78 4.08,4.08 0 0 1 -0.44,-0.72 1.93,1.93 0 0 1 0.14,-1.31 11.38,11.38 0 0 1 -2.11,-2 3,3 0 0 0 0.5,-4.62 1.54,1.54 0 0 0 0.74,-2.65 c -0.34,-0.24 -0.78,-0.34 -1,-0.68 -0.37,-0.5 -0.07,-1.21 0.23,-1.75 l 1.6,-2.89 c 1.19,-2.14 1.46,-4.79 2.74,-6.88 a 51.62,51.62 0 0 0 4.22,-9.63 l 4.56,-12.7 3.1,2.69 a 9.71,9.71 0 0 1 2.55,2.91 12.28,12.28 0 0 1 0.82,3.48 c 1.14,6.9 5.49,12.88 7.1,19.69 a 13.27,13.27 0 0 0 1.46,4.4 9.52,9.52 0 0 1 0.84,1.26 6.64,6.64 0 0 1 0.35,2.09 9.74,9.74 0 0 0 4.11,7 c 1.52,1 3.45,1.77 4.25,3.43 a 6.77,6.77 0 0 0 0.7,1.46 c 0.74,0.89 2.34,1 2.66,2.11 0.17,0.63 -0.16,1.37 0.2,1.92 a 1.75,1.75 0 0 0 0.75,0.56 l 4.47,2.24 c 5,2.49 7.52,8.2 11.21,12.39 a 25.73,25.73 0 0 1 3.35,4.44 c 1.59,2.84 2.33,6.41 5,8.24 a 7.77,7.77 0 0 1 1.94,1.44 c 0.85,1.11 0.54,2.67 0.61,4.07 0.07,1.4 1.15,3.06 2.48,2.64 a 9.65,9.65 0 0 0 0,5.17 26.06,26.06 0 0 0 15.8,-6.4 c 1.3,-1.14 2.56,-2.59 2.57,-4.31 a 1.67,1.67 0 0 0 -0.19,-0.86 2.34,2.34 0 0 0 -1,-0.76 c -4.17,-2.26 -5.43,-7.5 -7.52,-11.76 -1.85,-3.75 -4.57,-7 -6.88,-10.48 -5,-7.5 -8.34,-16.57 -15.85,-21.53 -1.65,-1.09 -3.57,-2.06 -4.39,-3.86 a 30.79,30.79 0 0 1 -0.88,-3.2 2.69,2.69 0 0 0 -2.35,-2 14.27,14.27 0 0 0 0.54,-5 6.22,6.22 0 0 0 -0.25,-2.15 10.16,10.16 0 0 0 -1.1,-2.12 20.55,20.55 0 0 1 -2.83,-11 c 0.06,-2 0.41,-4 -0.19,-5.91 -0.3,-1 -0.82,-1.83 -1.19,-2.76 a 17.21,17.21 0 0 1 -0.86,-5.15 l -0.41,-6.59 a 31.55,31.55 0 0 0 -0.85,-6.51 c -1.39,-5.11 -2.72,-26.52 -7.43,-28.93 -4.71,-2.41 -12.75,14.06 -18,14.39 a 24,24 0 0 0 -6.88,1.32 c -3.51,1.32 -6.46,3.78 -9.33,6.19 l -9.72,8.16 a 35.42,35.42 0 0 1 -6.03,4.35 z"
       style="fill:#464353" />
    <path
       inkscape:connector-curvature="0"
       id="path109"
       d="m 913.97,475.16 a 12.22,12.22 0 0 1 9.43,-4.6 22,22 0 0 1 10.42,2.62 13.43,13.43 0 0 0 3,1.25 c 1.72,0.35 3.62,-0.12 5.17,0.7 2.06,1.09 2.45,3.87 2.27,6.19 -0.18,2.32 -0.61,4.86 0.62,6.85 a 19,19 0 0 1 1.19,1.78 5.94,5.94 0 0 1 -0.11,3.81 30.6,30.6 0 0 1 -2,-2.51 c -0.72,-0.79 -1.95,-1.33 -2.83,-0.74 -0.88,0.59 -0.88,1.68 -0.92,2.65 -0.04,0.97 -0.3,2.14 -1.22,2.46 a 2,2 0 0 1 -2,-0.8 c -1.57,-1.92 -0.94,-5 -2.49,-6.92 -0.89,-1.1 -2.36,-1.63 -3.18,-2.78 -0.64,-0.9 -0.8,-2.07 -1.36,-3 -0.56,-0.93 -1.87,-1.69 -2.75,-1 a 3.74,3.74 0 0 0 -0.73,1 4.21,4.21 0 0 1 -5,1.5 8.77,8.77 0 0 0 -2.17,-0.93 2.67,2.67 0 0 0 -2.47,1.34 5.32,5.32 0 0 0 -0.65,2.86 c 0,1.35 0.24,2.83 -0.54,3.93 a 4.06,4.06 0 0 1 -1.16,1 c -1.15,0.73 -2.72,1.22 -3.8,0.39 a 2.86,2.86 0 0 1 -0.85,-2.66 21.88,21.88 0 0 1 0.81,-2.81 c 0.6,-2.12 -0.18,-4.51 0.48,-6.51 a 20.49,20.49 0 0 1 2.84,-5.07 z"
       style="fill:#464353" />
    <path
       inkscape:connector-curvature="0"
       id="path111"
       d="m 922.65,523.49 a 2.5,2.5 0 0 0 0.15,1.49 2.42,2.42 0 0 0 0.81,0.78 16.78,16.78 0 0 0 7.64,2.47 2.3,2.3 0 0 1 1,0.27 1.89,1.89 0 0 1 0.45,2.13 5.67,5.67 0 0 0 -0.48,2.26 c 0.2,1.43 1.89,2.08 3.33,2.26 a 7.72,7.72 0 0 0 5.79,-1.12 8.93,8.93 0 0 0 2.39,-3.59 c 3.93,-9 5.31,-19 9.29,-28 a 5.69,5.69 0 0 0 0.6,-1.87 1.86,1.86 0 0 0 -0.74,-1.73 c -0.74,-0.46 -1.89,-0.2 -2.39,-0.91 -0.25,-0.37 -0.22,-0.86 -0.44,-1.24 -0.46,-0.82 -1.66,-0.72 -2.49,-1.16 -0.64,-0.35 -1.09,-1 -1.8,-1.19 a 2.3,2.3 0 0 0 -1.88,0.81 c -2.33,2.18 -3.56,5.27 -4.86,8.19 a 97.27,97.27 0 0 1 -7,12.91 c 0.31,-0.48 -1.48,-4.13 -2.18,-4.27 -1.22,-0.25 -2.8,1.9 -3.46,2.71 a 17.16,17.16 0 0 0 -3.73,8.8 z"
       style="fill:#38d39f" />
    <rect
       id="rect113"
       height="78.029999"
       width="78.029999"
       y="536.28998"
       x="930.83002"
       style="fill:#ffffff" />
    <path
       inkscape:connector-curvature="0"
       id="path115"
       d="m 1008.23,579.27 a 31.53,31.53 0 0 0 -3.7,3.88 7.73,7.73 0 0 0 -1.7,5 2.57,2.57 0 0 0 0.48,1.46 1.25,1.25 0 0 0 1.39,0.43 2,2 0 0 0 0.68,-0.61 32,32 0 0 1 2.3,-2.5 c 0.3,-0.29 0.68,-0.6 1.08,-0.49 a 1.14,1.14 0 0 1 0.47,0.31 3.18,3.18 0 0 1 1,1.51 3.58,3.58 0 0 1 -1.06,2.91 7.54,7.54 0 0 0 -1.79,2.65 1.13,1.13 0 0 0 0,0.85 1.39,1.39 0 0 0 0.53,0.46 7.72,7.72 0 0 0 6.47,0.42 c 1.39,-0.55 2.59,-1.51 4,-2 a 9.61,9.61 0 0 0 1.77,-0.66 3.64,3.64 0 0 0 1.57,-2.34 10,10 0 0 0 0.11,-2.89 33,33 0 0 0 -2.41,-10.9 1.3,1.3 0 0 0 -0.39,-0.58 1.37,1.37 0 0 0 -0.66,-0.19 c -1.75,-0.18 -4.63,-1.08 -6.32,-0.43 a 4.32,4.32 0 0 0 -1.49,1.33 c -0.39,0.35 -2.33,1.92 -2.33,2.38 z"
       style="fill:#a1616a" />
    <path
       inkscape:connector-curvature="0"
       id="path117"
       d="m 1007.63,577.72 c 0,-1.68 -2.08,-5.71 1.21,-6 0,-1.78 -2.53,-2.9 -2.07,-4.78 0.16,-0.64 0.67,-1.15 0.75,-1.79 0.21,-1.83 -3.09,-2.82 -2.55,-4.58 0.2,-0.67 0.93,-1.08 1.09,-1.76 0.37,-1.58 -2.46,-2.29 -2.51,-3.91 0,-0.55 0.3,-1.07 0.28,-1.61 0,-0.69 -0.6,-1.21 -0.93,-1.8 -0.85,-1.53 -0.44,-3.9 -2,-4.68 1,0.08 1.39,-1.45 0.95,-2.39 -0.44,-0.94 -1.3,-1.75 -1.3,-2.79 a 4.43,4.43 0 0 0 0,-1.15 c -0.29,-1 -1.93,-1.07 -2.2,-2.07 a 10.67,10.67 0 0 1 0,-1.13 c -0.1,-0.78 -0.9,-1.26 -1.65,-1.49 a 6.56,6.56 0 0 1 -2.2,-0.78 c -0.48,-0.37 -1,-1 -1.55,-0.65 -0.19,0.11 -0.29,0.33 -0.44,0.5 -0.61,0.71 -1.78,0.4 -2.56,-0.13 -2.29,-1.55 -3.42,-4.34 -3.92,-7.06 -0.5,-2.72 -0.47,-5.53 -1.07,-8.23 a 18.85,18.85 0 0 0 -0.73,-2.46 12.73,12.73 0 0 1 -1.16,-2.46 c -0.12,-1.57 3.14,-0.5 4.38,-0.34 a 19.44,19.44 0 0 1 3.56,0.67 37.65,37.65 0 0 1 3.63,1.59 c 5,2.19 10.92,2.46 14.9,6.13 1.31,1.21 2.41,2.79 4.1,3.33 a 20.93,20.93 0 0 1 2.3,0.6 c 1.89,0.89 2.18,3.39 3.21,5.2 a 11.11,11.11 0 0 1 0.85,1.5 5.91,5.91 0 0 1 0.27,1.92 l 0.14,4.75 c 0.23,8 0.47,15.93 -0.38,23.84 -0.28,2.6 -0.67,5.29 0.09,7.8 0.2,0.68 0.49,1.33 0.66,2 a 13.62,13.62 0 0 1 0.26,2.47 l 0.11,3.07 a 1,1 0 0 1 -0.15,0.71 1,1 0 0 1 -0.83,0.2 c -4.29,-0.38 -8.61,-2.8 -12.66,-1.34"
       style="fill:#464353" />
    <path
       inkscape:connector-curvature="0"
       id="path119"
       d="m 927.89,565.19 a 1.32,1.32 0 0 0 -0.48,0.4 3.41,3.41 0 0 0 0,4.06 1.37,1.37 0 0 1 0.24,0.4 1.18,1.18 0 0 1 -0.12,0.68 2.25,2.25 0 0 0 0.31,2.52 c 0.31,0.26 0.73,0.39 0.93,0.73 0.35,0.58 -0.14,1.32 -0.06,2 0.1,0.89 1.15,1.33 2,1.44 a 2.13,2.13 0 0 0 1.95,-0.52 1.62,1.62 0 0 0 0,-1.77 4.74,4.74 0 0 0 -1.32,-1.32 2,2 0 0 0 1.89,-1.83 2.84,2.84 0 0 0 -1.14,-2.49 c -0.18,-0.15 -0.4,-0.3 -0.45,-0.54 -0.05,-0.24 0.19,-0.57 0.41,-0.8 1,-1 1.77,-3.45 -0.11,-4 a 4.63,4.63 0 0 0 -2,0.09 c -0.48,0.15 -0.48,0.44 -0.85,0.64 -0.37,0.2 -0.78,0.1 -1.2,0.31 z"
       style="fill:#a1616a" />
    <path
       inkscape:connector-curvature="0"
       id="path121"
       d="m 947.54,496.12 a 3.3,3.3 0 0 0 -2.54,1.28 7.31,7.31 0 0 0 -1.06,3.4 29.81,29.81 0 0 1 -4,10.86"
       style="opacity:0.1" />
    <path
       inkscape:connector-curvature="0"
       id="path123"
       d="m 951.04,498.86 a 3.88,3.88 0 0 0 -3.32,2 11.1,11.1 0 0 0 -0.84,3.39 18.42,18.42 0 0 1 -3.33,7.11"
       style="opacity:0.1" />
    <path
       inkscape:connector-curvature="0"
       style="fill:#f30a0a;fill-opacity:1"
       id="path193"
       d="m 994.92,564.86 c 0,-4.22 -3.11,-7.62 -7,-7.62 -5.21,-0.25 -10.51,-0.34 -15.93,-0.34 h -1.69 c -5.41,0 -10.73,0.09 -15.93,0.34 -3.83,0 -6.94,3.41 -6.94,7.64 -0.24,3.35 -0.34,6.69 -0.33,10 0.01,3.31 0.09,6.69 0.32,10 0,4.23 3.11,7.66 6.94,7.66 5.46,0.25 11.07,0.36 16.77,0.36 5.7,0 11.3,-0.1 16.78,-0.36 3.84,0 7,-3.43 7,-7.66 0.22,-3.35 0.33,-6.69 0.32,-10.05 -0.01,-3.36 -0.09,-6.68 -0.31,-10 z m -28.33,19.27 v -18.46 l 13.62,9.22 z" />
    <g
       transform="matrix(1.2722725,0,0,1.1325188,-164.1115,-103.67478)"
       id="g29"
       style="opacity:0.9;stroke-width:0.88322842">
      <rect
         ry="2.0850909"
         id="rect15"
         rx="1.9619685"
         height="73.019997"
         width="8.8599997"
         y="248.78"
         x="708.33002"
         style="fill:#3a3768;stroke-width:0.88322842" />
      <rect
         ry="2.0850909"
         id="rect17"
         rx="1.9619685"
         height="24.040001"
         width="4.9699998"
         y="191.58"
         x="413.89001"
         style="fill:#3a3768;stroke-width:0.88322842" />
      <rect
         ry="2.0850909"
         id="rect19"
         rx="1.9619685"
         height="41.84"
         width="5.5999999"
         y="235.59"
         x="413.70999"
         style="fill:#3a3768;stroke-width:0.88322842" />
      <rect
         ry="2.0850909"
         id="rect21"
         rx="1.9619685"
         height="42.200001"
         width="5.3299999"
         y="292.07001"
         x="413.79999"
         style="fill:#3a3768;stroke-width:0.88322842" />
      <rect
         ry="35.501183"
         id="rect23"
         rx="33.404873"
         height="602.39001"
         width="296.39999"
         y="112.14"
         x="416.70999"
         style="fill:#3a3768;stroke-width:0.88322842" />
      <rect
         ry="3.5237126"
         id="rect25"
         rx="3.3156412"
         height="8.3999996"
         width="41.389999"
         y="130.12"
         x="536.31"
         style="fill:#e6e8ec;stroke-width:0.88322842" />
      <circle
         id="circle27"
         r="4.77"
         cy="134.33"
         cx="588.72998"
         style="fill:#e6e8ec;stroke-width:0.88322842" />
    </g>
    <path
       id="path37"
       d="m 689.87597,41.083775 h -43.13004 v 4.632001 A 24.656641,21.948214 0 0 1 622.08929,67.663991 H 484.45485 A 24.656641,21.948214 0 0 1 459.79821,45.715776 V 41.083775 H 419.28905 A 29.936572,26.648167 0 0 0 389.35248,67.743267 V 661.10384 a 29.936572,26.648167 0 0 0 29.93657,26.65949 h 270.58692 a 29.949295,26.659493 0 0 0 29.94929,-26.65949 V 67.743267 A 29.949295,26.659493 0 0 0 689.87597,41.083775 Z"
       inkscape:connector-curvature="0"
       style="fill:#00e469;fill-opacity:1;stroke-width:1.06019521" />
    <rect
       id="rect67"
       height="88.370438"
       width="99.275421"
       y="448.84717"
       x="579.57001"
       style="opacity:0.3;fill:#3a3768;stroke-width:1.06019521" />
    <rect
       id="rect69"
       height="88.370438"
       width="99.275421"
       y="332.19772"
       x="433.25861"
       style="opacity:0.3;fill:#3a3768;stroke-width:1.06019521" />
    <rect
       id="rect71"
       height="88.370438"
       width="99.275421"
       y="563.50336"
       x="442.80066"
       style="opacity:0.3;fill:#3a3768;stroke-width:1.06019521" />
    <rect
       id="rect79"
       height="88.370438"
       width="99.275421"
       y="320.23834"
       x="452.43176"
       style="fill:#ffffff;stroke-width:1.06019521" />
    <path
       style="fill:url(#linearGradient1010);fill-opacity:1;stroke-width:1.06019521"
       id="path189"
       d="m 511.09624,347.04505 a 9.5802119,8.5278666 0 0 1 9.55476,8.50522 v 16.98778 a 9.5802119,8.5278666 0 0 1 -9.55476,8.50522 h -19.08409 a 9.5929347,8.5391918 0 0 1 -6.75577,-2.49154 9.4784301,8.4372651 0 0 1 -2.81172,-6.01368 v -16.98778 a 9.5802119,8.5278666 0 0 1 9.56749,-8.50522 h 19.08409 m 0,-3.39755 h -19.08409 a 13.422475,11.948073 0 0 0 -13.38431,11.91409 v 16.98779 a 13.422475,11.948073 0 0 0 13.38431,11.91409 h 19.08409 a 13.422475,11.948073 0 0 0 13.3843,-11.86879 V 355.6069 a 13.435198,11.959399 0 0 0 -13.3843,-11.9594 z"
       inkscape:connector-curvature="0" />
    <path
       style="fill:url(#linearGradient2690);fill-opacity:1;stroke-width:1.06019521"
       id="path191"
       d="m 513.95885,355.57292 a 2.8753358,2.5594925 0 1 1 2.86261,-2.54817 2.8498904,2.5368421 0 0 1 -2.86261,2.54817 z m -12.37921,1.6648 a 7.633635,6.7951128 0 1 1 -7.63364,6.79512 7.633635,6.7951128 0 0 1 7.63364,-6.79512 m 0,-3.39755 a 11.450453,10.192669 0 1 0 11.45045,10.19267 11.450453,10.192669 0 0 0 -11.45045,-10.19267 z"
       inkscape:connector-curvature="0" />
    <rect
       id="rect75"
       transform="matrix(0.77336379,-0.6339625,0.7066688,0.70754449,0,0)"
       height="94.256737"
       width="95.186096"
       y="743.80365"
       x="77.196846"
       style="fill:#ffffff;stroke-width:1.07214725" />
    <path
       id="path183"
       d="m 615.44803,472.68435 3.81682,8.67929 24.92381,23.94008 8.34611,-7.12324 5.25449,5.03698 5.55983,-4.76035 0.31807,-9.78581 6.9466,-5.94756 0.5598,-17.13956 -22.30293,-21.41582 z m 50.25476,-4.79492 -0.31807,9.79733 -8.3461,7.12324 -0.31807,9.79734 -5.24176,-5.03699 -6.95933,5.94755 -22.35383,-21.42733 26.4251,-22.57998 z"
       inkscape:connector-curvature="0"
       style="fill:#b645c6;fill-opacity:1;stroke-width:1.06956601" />
    <path
       id="path185"
       d="m 645.41005,463.60166 4.17305,-3.56163 10.58531,10.15465 -4.17306,3.5501 z m -9.73289,8.32196 4.17306,-3.57314 10.57258,10.16618 -4.17305,3.56161 z"
       inkscape:connector-curvature="0"
       style="fill:#b645c6;fill-opacity:1;stroke-width:1.06956601" />
    <rect
       id="rect69-3"
       height="88.370438"
       width="99.275421"
       y="208.83917"
       x="593.75354"
       style="opacity:0.3;fill:#3a3768;stroke-width:1.06019521" />
    <g
       transform="matrix(1.2722725,0,0,1.1325188,-164.1115,-103.67478)"
       style="stroke-width:0.88322842"
       id="g1078">
      <rect
         x="583.23999"
         y="287.31"
         width="78.029999"
         height="78.029999"
         id="rect77"
         style="fill:#ffffff;stroke-width:0.88322842" />
      <path
         d="m 697.55,361.29 a 18.35,18.35 0 0 1 -5.22,1.43 9.15,9.15 0 0 0 4,-5 18.29,18.29 0 0 1 -5.78,2.21 9.08,9.08 0 0 0 -15.73,6.21 8.9,8.9 0 0 0 0.23,2.08 25.75,25.75 0 0 1 -18.74,-9.52 9.13,9.13 0 0 0 2.82,12.16 8.86,8.86 0 0 1 -4.13,-1.14 v 0.11 a 9.11,9.11 0 0 0 7.3,8.93 9.45,9.45 0 0 1 -2.4,0.32 8.85,8.85 0 0 1 -1.71,-0.17 9.13,9.13 0 0 0 8.5,6.32 18.24,18.24 0 0 1 -11.3,3.9 19.59,19.59 0 0 1 -2.17,-0.13 25.47,25.47 0 0 0 13.92,4.11 c 16.75,0 25.9,-13.87 25.9,-25.91 q 0,-0.59 0,-1.17 a 18.48,18.48 0 0 0 4.51,-4.74 z"
         transform="translate(-51.77,-49.02)"
         id="path181"
         style="fill:#2ad4ff;stroke-width:0.88322842"
         inkscape:connector-curvature="0" />
    </g>
    <rect
       id="rect69-6"
       height="88.370438"
       width="99.275421"
       y="128.88972"
       x="434.99918"
       style="opacity:0.3;fill:#3a3768;stroke-width:1.06019521" />
    <g
       transform="matrix(1.2722725,0,0,1.1325188,-164.1115,-103.67478)"
       style="stroke-width:0.88322842"
       id="g1088">
      <rect
         x="459.62"
         y="193.28"
         width="78.029999"
         height="78.029999"
         id="rect73"
         style="fill:#ffffff;stroke-width:0.88322842" />
      <path
         d="m 550,260 a 21,21 0 0 0 -8.44,40.31 18.72,18.72 0 0 1 0.36,-4.83 c 0.41,-1.71 2.71,-11.47 2.71,-11.47 a 8,8 0 0 1 -0.68,-3.32 c 0,-3.12 1.81,-5.45 4.06,-5.45 1.92,0 2.84,1.44 2.84,3.16 0,1.92 -1.23,4.8 -1.86,7.46 a 3.25,3.25 0 0 0 3.32,4.05 c 4,0 6.67,-5.12 6.67,-11.19 0,-4.61 -3.11,-8.05 -8.75,-8.05 a 10,10 0 0 0 -10.36,10.07 6.05,6.05 0 0 0 1.39,4.13 1,1 0 0 1 0.3,1.17 c -0.1,0.39 -0.33,1.32 -0.43,1.69 a 0.73,0.73 0 0 1 -1.06,0.53 c -2.94,-1.2 -4.31,-4.42 -4.31,-8 0,-6 5,-13.14 15,-13.14 8,0 13.32,5.81 13.32,12.05 0,8.25 -4.59,14.42 -11.36,14.42 a 6,6 0 0 1 -5.13,-2.62 c 0,0 -1.23,4.84 -1.49,5.78 a 17.34,17.34 0 0 1 -2.11,4.51 21.31,21.31 0 0 0 6,0.86 A 21.060001,21.060001 0 0 0 550,260 Z"
         transform="translate(-51.77,-49.02)"
         id="path195"
         style="fill:#ff2b2b;fill-opacity:1;stroke-width:0.88322842"
         inkscape:connector-curvature="0" />
    </g>
    <ellipse
       style="opacity:0.31300001;fill:#373748;stroke-width:0.92640316"
       id="ellipse33"
       ry="10.488511"
       rx="109.34283"
       cy="795.48145"
       cx="708.06976" />
    <path
       id="path203"
       d="m 693.80666,781.33572 a 8.2403967,7.7538102 0 0 1 1.34228,1.8451 v 0 l -16.52748,1.80117 a 7.3883443,6.9520706 0 0 0 1.16719,-3.65725 c 0,0 11.00665,-3.02025 14.01801,0.011 z"
       inkscape:connector-curvature="0"
       style="opacity:0.1;stroke-width:0.92640316" />
    <path
       id="path205"
       d="m 744.01939,778.02992 v 2.91042 c -2.56783,3.98674 -14.99845,3.1191 -18.60508,1.09828 a 5.9060067,5.5572634 0 0 0 0.77034,-0.36243 c 2.81294,-1.44972 2.74291,-5.01911 2.74291,-5.01911 0,0 11.01832,-3.04222 14.00634,0 a 7.8085345,7.347449 0 0 1 1.08549,1.37284 z"
       inkscape:connector-curvature="0"
       style="opacity:0.1;stroke-width:0.92640316" />
    <path
       id="path209"
       d="m 711.30292,696.63688 18.41833,-2.31736 c 0,0 -10.41137,10.03822 -18.41833,2.31736 z"
       inkscape:connector-curvature="0"
       style="opacity:0.05;stroke-width:0.92640316" />
    <path
       id="path211"
       d="m 727.09507,677.34021 c 0,0 0.64195,6.13935 -3.36153,8.45671 0,0 7.15491,-1.05434 3.36153,-8.45671 z"
       inkscape:connector-curvature="0"
       style="opacity:0.1;stroke-width:0.92640316" />
    <path
       id="path213"
       d="m 725.96289,657.77996 c 0,0 -15.43032,11.9602 -21.00951,10.98274 -5.5792,-0.97746 21.00951,-10.98274 21.00951,-10.98274 z"
       inkscape:connector-curvature="0"
       style="opacity:0.1;stroke-width:0.92640316" />
    <path
       id="path215"
       d="m 688.40255,702.24905 c 0,0 -11.67195,2.51505 -12.06879,6.94109 -0.39685,4.42604 12.06879,-6.94109 12.06879,-6.94109 z"
       inkscape:connector-curvature="0"
       style="opacity:0.1;stroke-width:0.92640316" />
    <path
       id="path217"
       d="m 690.98205,757.34943 c 0,0 -16.56249,2.91043 -11.8587,4.8983 a 80.303016,75.56121 0 0 0 12.43063,3.55841 c 0,0 5.33408,0.26358 -0.57193,-8.45671 z"
       inkscape:connector-curvature="0"
       style="opacity:0.05;stroke-width:0.92640316" />
    <g
       transform="matrix(1.167195,0,0,1.0982734,-88.750894,-79.205414)"
       id="g241"
       style="opacity:0.05;stroke-width:0.88322842">
      <path
         id="path219"
         transform="translate(-51.77,-49.02)"
         d="m 706.78,818 a 2.81,2.81 0 0 1 -1.3,-2.06 l -0.14,0.26 c 0,0 -1.33,3.24 1,4.69 0.26,0.16 0.51,0.33 0.74,0.49 0.42,-0.08 0.88,-0.14 1.31,-0.25 1.9,-0.44 0.68,-1.65 -1.61,-3.13 z"
         inkscape:connector-curvature="0"
         style="stroke-width:0.88322842" />
      <path
         id="path221"
         transform="translate(-51.77,-49.02)"
         d="m 725.07,817.08 c 0.39,-0.36 0.37,-1.29 0.14,-2.48 a 6.71,6.71 0 0 0 -0.81,3.49 2.67,2.67 0 0 1 0.67,-1.01 z"
         inkscape:connector-curvature="0"
         style="stroke-width:0.88322842" />
      <path
         id="path223"
         transform="translate(-51.77,-49.02)"
         d="m 722.88,757.22 a 16.56,16.56 0 0 0 -1,4.42 17.48,17.48 0 0 1 1.1,-3 c 0,0 0.02,-0.58 -0.1,-1.42 z"
         inkscape:connector-curvature="0"
         style="stroke-width:0.88322842" />
      <path
         id="path225"
         transform="translate(-51.77,-49.02)"
         d="m 755.39,750.9 a 5.72,5.72 0 0 0 0.13,-1.32 c -0.18,0.9 -0.3,1.74 -0.39,2.47 0.08,-0.38 0.16,-0.76 0.26,-1.15 z"
         inkscape:connector-curvature="0"
         style="stroke-width:0.88322842" />
      <path
         id="path227"
         transform="translate(-51.77,-49.02)"
         d="m 722.54,800 a 7.57,7.57 0 0 0 0.36,-2.67 8.81,8.81 0 0 0 -0.69,3.37 3.24,3.24 0 0 1 0.33,-0.7 z"
         inkscape:connector-curvature="0"
         style="stroke-width:0.88322842" />
      <path
         id="path229"
         transform="translate(-51.77,-49.02)"
         d="m 725.52,822.68 a 48.12,48.12 0 0 0 -1.65,7.39 l -14.55,1.69 a 30.14,30.14 0 0 1 -3.26,-6.14 10.72,10.72 0 0 1 -0.41,-1.06 c -0.87,0.4 -1.22,1.3 -0.07,4 a 29.79,29.79 0 0 0 3.26,6.13 L 723.38,833 c 0,0 1.09,-7.58 2.53,-9 0.71,-0.77 0.26,-1.13 -0.39,-1.32 z"
         inkscape:connector-curvature="0"
         style="stroke-width:0.88322842" />
      <path
         id="path231"
         transform="translate(-51.77,-49.02)"
         d="m 706.3,801.07 c 0,0 0.12,8.31 1.32,8.79 v 0 c 0.61,-1.37 1,-2.67 0.47,-2.89 -1.2,-0.48 -1.32,-8.78 -1.32,-8.78 0,0 -2.41,-9.87 -1.8,-12.52 0.61,-2.65 -1.93,-9 -1.93,-9 l -0.84,-7.58 a 20.88,20.88 0 0 1 -2.65,-14.32 v -11.69 c 0,0 -3.37,-22.62 -3.85,-34.05 -0.31,-7.32 -0.22,-17.31 -0.12,-23.55 0,-1.12 0,-2.12 0,-3 h -0.41 c 0,0 -0.06,2.31 -0.12,5.81 -0.1,6.23 -0.19,16.23 0.12,23.55 0.48,11.43 3.85,34.05 3.85,34.05 v 11.67 a 20.81,20.81 0 0 0 2.71,14.44 l 0.84,7.58 c 0,0 2.53,6.37 1.92,9 -0.61,2.63 1.81,12.49 1.81,12.49 z"
         inkscape:connector-curvature="0"
         style="stroke-width:0.88322842" />
      <path
         id="path233"
         transform="translate(-51.77,-49.02)"
         d="m 749.13,828.51 a 14,14 0 0 1 -2.3,-5.72 c -1.49,1.34 0.22,6.55 1.82,8.61 1.6,2.06 14.2,3.49 16.61,-0.49 v -2.29 c -3.26,3.23 -14.53,1.94 -16.13,-0.11 z"
         inkscape:connector-curvature="0"
         style="stroke-width:0.88322842" />
      <path
         id="path235"
         transform="translate(-51.77,-49.02)"
         d="m 767.42,814.91 a 24.05,24.05 0 0 0 -1.68,3.61 v 1.69 c 0.27,-0.62 0.66,-1.44 1.2,-2.41 a 7.29,7.29 0 0 0 0.53,-3 z"
         inkscape:connector-curvature="0"
         style="stroke-width:0.88322842" />
      <path
         id="path237"
         transform="translate(-51.77,-49.02)"
         d="m 749.87,816.81 a 23.17,23.17 0 0 0 1.19,-2.86 c 0,0 -2,0.48 -5.3,-3.37 -2.36,-2.8 -2.49,-8.09 -2.16,-11.55 -0.6,2.05 -1.57,10.59 1.68,14.44 2.13,2.53 3.72,3.18 4.59,3.34 z"
         inkscape:connector-curvature="0"
         style="stroke-width:0.88322842" />
      <path
         id="path239"
         transform="translate(-51.77,-49.02)"
         d="m 743.6,790.13 a 66.12,66.12 0 0 1 0.24,7.13 c 0.08,-0.47 0.17,-0.85 0.24,-1.12 0.61,-2 0,-8.9 0,-8.9 0,0 0.12,-4.82 -0.84,-6.38 -0.96,-1.56 -3,-10.47 -3,-10.47 0,0 0,-3 -1.68,-4.57 -1.68,-1.57 -2.77,-7.7 -2.77,-7.7 a 7.89,7.89 0 0 1 -1.21,-5.17 c 0.37,-3 -2,-6.26 -2,-6.26 l -4.09,-13 -3.9,-9.69 -2.17,5.65 c 0,0 0,0.71 -0.07,1.83 l 1.76,-4.59 3.85,9.74 4.09,13 c 0,0 2.4,3.25 2,6.25 a 7.91,7.91 0 0 0 1.25,5.12 c 0,0 1.08,6.13 2.76,7.7 1.68,1.57 1.69,4.57 1.69,4.57 0,0 2,8.9 3,10.47 1,1.57 0.85,6.39 0.85,6.39 z"
         inkscape:connector-curvature="0"
         style="stroke-width:0.88322842" />
    </g>
    <path
       id="path245"
       d="m 729.59286,500.15577 -5.83597,0.5711 -0.65363,-1.09828 v 0 a 5.1590019,4.8543684 0 0 1 6.46626,-0.99942 z"
       inkscape:connector-curvature="0"
       style="opacity:0.1;stroke-width:0.92640316" />
    <path
       id="path257"
       d="m 702.59564,500.26559 a 24.230968,22.800156 0 0 0 -1.75079,6.88618 c -2.91799,2.29539 -6.10443,2.19654 -10.20128,2.19654 -3.15143,0 -6.64134,0.72486 -9.15081,-0.70289 a 40.58337,38.186966 0 0 0 -3.61831,-6.87519 c 0,0 30.89565,-16.04578 24.72119,-1.50464 z"
       inkscape:connector-curvature="0"
       style="opacity:0.1;stroke-width:0.92640316" />
    <path
       id="path261"
       d="m 708.06979,523.64783 c 0,0 -40.41997,4.29425 -32.86821,1.98788 5.26405,-1.61446 7.35333,-4.75552 7.79686,-8.24803 2.00757,-2.05378 6.04607,-3.53644 8.64891,-4.31622 a 12.057124,11.345164 0 0 1 7.31832,-0.10983 9.7577502,9.1815656 0 0 1 2.6612,1.09828 22.071657,20.76835 0 0 0 6.44292,9.58792 z"
       inkscape:connector-curvature="0"
       style="opacity:0.1;stroke-width:0.92640316" />
    <path
       id="path265"
       d="m 606.73392,494.47769 -9.26753,4.29425 -0.18675,-1.87805 a 68.210876,64.183097 0 0 1 9.33756,-3.88788 z"
       inkscape:connector-curvature="0"
       style="opacity:0.1;stroke-width:0.92640316" />
    <path
       id="path267"
       d="m 724.06036,619.48317 c -15.65209,2.31736 -37.93384,5.34859 -41.47044,4.33818 -2.92966,-0.84567 -12.29056,-0.75781 -20.44926,-0.49422 0.07,-3.83298 0.14007,-6.38097 0.14007,-6.38097 l 60.69414,-5.94166 a 50.282761,47.313618 0 0 0 1.08549,8.47867 z"
       inkscape:connector-curvature="0"
       style="opacity:0.1;stroke-width:0.92640316" />
    <path
       id="path291"
       d="m 646.41855,584.43727 c 0,0 18.94357,0.48324 20.9278,5.61217 v 5.33761 a 3.6299764,3.4156303 0 0 1 -3.50158,0 c -1.9142,-0.96648 -13.36438,-6.44686 -17.40288,-3.81101 z"
       inkscape:connector-curvature="0"
       style="opacity:0.1;stroke-width:0.92640316" />
    <g
       transform="matrix(1.167195,0,0,1.0982734,-88.750894,-79.205414)"
       id="g307"
       style="opacity:0.1;stroke-width:0.81822562">
      <path
         id="path305"
         transform="translate(-51.77,-49.02)"
         d="m 733,583.05 a 4.73,4.73 0 0 1 -2,1.3 c -4,1.69 -8.58,1.49 -12.94,1.22 a 2.94,2.94 0 0 1 -1.35,-0.3 3,3 0 0 1 -1.12,-1.93 c -0.85,-3.09 -1.63,-5.91 -3.65,-8.47 a 3.12,3.12 0 0 0 -1.64,-1.26 4.84,4.84 0 0 0 -1.88,0.18 1.86,1.86 0 0 1 -1.77,-0.42 1.94,1.94 0 0 1 -0.31,-1.27 c 0,-1.29 0.29,-2.74 -0.52,-3.74 -0.45,-0.56 -1.16,-0.86 -1.63,-1.41 a 2.82,2.82 0 0 1 -0.27,-2.88 c -0.77,1.22 -1.1,2.78 -0.21,3.84 0.47,0.55 1.18,0.85 1.63,1.41 0.81,1 0.53,2.45 0.51,3.74 a 2,2 0 0 0 0.32,1.27 1.85,1.85 0 0 0 1.77,0.42 4.84,4.84 0 0 1 1.88,-0.18 3.17,3.17 0 0 1 1.64,1.26 c 2,2.57 2.8,5.38 3.65,8.47 a 3.05,3.05 0 0 0 1.11,1.94 3.13,3.13 0 0 0 1.35,0.3 c 4.37,0.27 8.91,0.46 13,-1.22 a 4.91,4.91 0 0 0 2,-1.31 3.81,3.81 0 0 0 0.62,-1.16 c -0.06,0.07 -0.1,0.15 -0.19,0.2 z"
         inkscape:connector-curvature="0"
         style="stroke-width:0.88322842" />
    </g>
    <path
       id="path197"
       d="m 749.83203,798.78301 c -0.94543,-3.83397 -1.51736,-7.18729 -1.51736,-7.18729 a 15.547037,14.888749 0 0 0 -1.73912,-7.29906 v -1.05071 0 -7.71263 a 26.623718,25.496422 0 0 1 2.03092,-4.03517 c 1.44732,-2.41439 0,-11.28951 0,-11.28951 0,0 -5.3691,-12.5079 -4.07351,-20.44409 1.29559,-7.9362 -11.01832,-35.24342 -11.01832,-35.24342 a 36.358124,34.818657 0 0 1 1.16719,-7.82441 5.8943347,5.6447582 0 0 0 0.15174,-1.63195 1.2722426,1.2183736 0 0 0 0,-0.2012 v 0.0671 c -0.18675,-5.23119 -4.50537,-15.04524 -4.50537,-15.04524 l 0.58359,-18.68917 c 0,0 2.75458,-11.03243 -1.73912,-25.83177 -1.57571,-5.16411 -2.5795,-9.2887 -3.22145,-12.48553 -0.07,-0.35769 -0.14007,-0.70419 -0.19843,-1.03953 9.25586,-1.3525 16.34073,-2.48146 16.34073,-2.48146 0,0 -5.36909,-21.51714 -8.99907,-25.28404 -3.62998,-3.76689 -6.52462,-15.59295 -6.52462,-15.59295 0,0 -1.89086,-15.20173 1.16719,-19.63928 3.05806,-4.43756 3.50159,-12.1055 3.50159,-12.1055 0,0 7.00317,-4.83996 7.83188,-6.99726 a 37.000081,35.433433 0 0 0 2.33439,-9.54579 c 0,-2.5597 -0.8754,-4.83996 -0.5836,-6.19247 0.2918,-1.3525 -2.03092,-6.44956 -0.86372,-8.87513 a 6.781403,6.4942663 0 0 0 0.4552,-2.33614 0.15173535,0.14531061 0 0 0 0,-0.0671 v 0 a 34.700707,33.231418 0 0 0 -0.61861,-6.31542 18.67512,17.884383 0 0 0 -6.88645,-3.53217 l -0.15174,-0.57006 -0.39684,-1.50899 a 5.3224092,5.097049 0 0 0 -0.68865,-0.39123 V 499.84555 497.61 l 1.08549,-4.9182 c 2.14764,-8.52862 -9.75775,-9.80288 -9.75775,-9.80288 a 6.2795091,6.0136236 0 0 0 -3.37319,-2.83914 c -2.33439,-0.8048 -0.39685,12.8544 0.72366,13.72626 0.84038,0.64831 3.50158,4.94056 4.66878,7.04198 v 0 l 0.2101,0.34651 a 4.7388117,4.538162 0 0 0 -0.54859,0.54771 l 0.45521,2.9621 0.07,0.45829 a 12.710754,12.172557 0 0 0 -1.90253,3.09623 c 0,0 2.18266,2.29144 1.73912,4.85114 a 15.873852,15.201725 0 0 0 0.72366,5.91302 c -0.12839,-0.14531 -1.65741,-1.73254 -3.18644,-1.34133 -1.52902,0.39123 -5.83597,1.6096 -5.83597,1.6096 0,0 -3.19812,0.53653 -2.90632,1.2072 0.2918,0.67066 -2.17098,3.63276 -2.17098,3.63276 l -8.57888,-7.82442 c -0.0934,-0.23473 -0.17508,-0.46947 -0.25679,-0.70419 a 19.608876,18.778601 0 0 1 -0.73533,-3.35333 19.060294,18.253248 0 0 0 2.73124,-0.83833 5.9176787,5.6671137 0 0 0 2.33439,-1.4531 9.2675283,8.8751248 0 0 0 1.37729,-3.54335 c 0.67697,-2.39203 2.13596,-4.52699 3.18644,-6.79606 a 23.087117,22.109568 0 0 0 1.65742,-12.12785 8.4271479,8.0703275 0 0 0 -1.30726,-3.57688 c -1.40064,-1.84432 -3.94512,-2.59323 -5.83598,-4.0687 -1.89085,-1.47545 -3.0347,-3.711 -5.19402,-4.8176 a 10.2363,9.8028771 0 0 0 -6.51294,-0.53654 34.805755,33.332018 0 0 0 -12.1505,4.22519 c -1.26057,0.71538 -2.62619,1.53136 -4.07351,1.28545 a 5.4974885,5.2647151 0 0 1 -2.92966,-2.05671 0.57192555,0.54770921 0 0 1 0,-0.12295 l -0.10505,-0.1006 a 15.371958,14.721082 0 0 0 -1.3306,6.14775 c 0,0.32415 0,0.64831 0,0.98365 0,0.11177 0,0.22355 0,0.33533 a 2.6378607,2.5261691 0 0 1 0,0.29062 v 0 a 2.0542632,1.9672821 0 0 1 -0.07,0.43593 3.3031619,3.1633001 0 0 1 -0.7937,1.11777 5.1706738,4.9517384 0 0 0 -0.70031,0.91658 c 0,-0.11178 0.07,-0.22356 0.11671,-0.33533 a 5.0656263,4.8511387 0 0 0 -0.89874,2.58205 2.6845485,2.57088 0 0 0 0.65363,1.85551 9.33756,8.9421912 0 0 0 1.38897,1.11777 16.34073,15.648834 0 0 0 -0.24511,2.72737 16.597513,15.894745 0 0 0 8.07698,13.5586 l 0.2918,0.7042 a 20.414241,19.549865 0 0 1 1.55237,8.94219 c 0,0.22355 0,0.43593 -0.10504,0.65949 l -0.30348,0.33532 v 0 c 0,0 -14.16974,0.13413 -17.50792,-2.76089 -3.33818,-2.89504 -8.41548,7.06432 -8.41548,7.06432 0,0 -5.07729,0.95011 -6.09275,0 -1.01546,-0.9501 -7.00317,-0.13413 -7.00317,-0.13413 a 12.839145,12.295513 0 0 0 -8.84734,-3.08505 25.993433,24.892825 0 0 0 -6.50128,-3.46511 v 0 l -0.16341,-0.0559 v 0 a 7.2599529,6.9525536 0 0 0 -3.19811,-0.38005 c 0,0 -7.00317,-5.5218 -8.9874,-8.47272 -1.98423,-2.95092 -11.67195,-13.93864 -11.75366,-13.99453 v -0.52535 l -0.11671,-1.59842 a 6.5129481,6.2371783 0 0 1 -0.86373,0.0782 c 0,-0.16766 -0.11672,-0.34652 -0.19842,-0.55889 a 31.514265,30.179895 0 0 0 -2.05427,-4.47109 c 0,0 0,-2.012 0.61862,-2.51499 0.61861,-0.503 -0.25679,-7.90266 -0.25679,-7.90266 0,0 -6.2795,-14.05042 -11.89371,-3.5657 0,0 -10.63315,6.78488 -1.71578,14.69872 0,0 3.50159,1.64312 4.06184,2.95093 0.33849,0.8495 1.5407,3.23036 2.33439,4.80643 l 0.36183,0.70419 -0.10505,0.0782 0.14007,1.31899 v 0.51416 c -1.68076,0.90541 -2.81294,1.8108 -2.54449,2.50383 a 15.360286,14.709905 0 0 1 1.01546,3.63275 c 0,0 12.33725,14.78816 13.93631,21.11476 0,0 33.07831,18.82331 43.95656,20.17581 l -1.87918,9.41167 a 77.723515,74.432564 0 0 0 -0.43186,7.66792 c 0.14006,2.01199 -1.30726,11.17774 -1.30726,11.17774 0,0 -1.89086,13.41328 -3.50159,15.32468 -1.61073,1.9114 -1.30726,9.95937 -1.30726,9.95937 a 70.136748,67.167034 0 0 1 -2.17098,11.42364 c -1.59906,5.11941 -0.43186,11.43483 -0.43186,11.43483 0,0 -5.52083,12.10549 7.69181,3.90104 0,0 6.47794,-0.38005 14.00634,-0.62596 0,0.23473 0,0.46946 0,0.71538 0,0.91657 0,1.91139 0,2.9621 -0.0934,6.93019 -0.14006,16.48716 0.18676,23.71915 0.58359,12.77616 4.66878,38.00432 4.66878,38.00432 v 12.69791 a 18.546729,17.761427 0 0 0 -0.37351,3.63276 24.581127,23.540318 0 0 0 3.57162,12.72027 l 1.01546,8.47273 c 0,0 2.33439,5.58887 2.42777,8.94219 a 4.5870763,4.3928514 0 0 1 -0.10505,0.8048 6.2795091,6.0136236 0 0 0 -0.11672,1.29661 c -0.12839,3.84514 2.33439,13.05561 2.33439,13.05561 0,0 0.15173,9.27752 1.59906,9.81405 1.23722,0.45828 -1.65742,5.35413 -2.52115,6.70665 a 2.33439,2.2355478 0 0 1 -0.0584,-0.26827 c -0.10504,0.17884 -0.17507,0.27945 -0.17507,0.27945 a 6.8047469,6.5166218 0 0 0 -0.45521,2.34731 3.501585,3.3533217 0 0 0 1.61073,3.26391 c 2.75458,1.62076 4.23692,2.9621 1.90253,3.49862 a 23.180493,22.198989 0 0 0 -2.55616,0.51418 c 0,-0.1006 -0.0934,-0.21237 -0.12839,-0.31297 a 1.5640413,1.497817 0 0 0 -0.91041,1.5537 7.1782492,6.8743095 0 0 0 0.87539,3.14095 35.01585,33.533217 0 0 0 3.92178,6.86313 l 1.16719,-0.12295 a 5.5091604,5.2758928 0 0 1 -0.65363,1.11776 4.5170447,4.325785 0 0 1 -1.63407,1.38605 5.2290336,5.0076271 0 0 1 -1.98423,0.65949 5.5325043,5.2982483 0 0 0 -4.10853,1.91139 c -1.44732,1.78844 -2.33439,4.23636 0.5019,6.38248 l 10.37636,3.4204 c 0,0 17.84641,2.23555 16.90098,-1.6096 -0.94542,-3.84514 -1.51735,-7.18728 -1.51735,-7.18728 a 15.838836,15.168191 0 0 0 -1.45899,-6.80725 7.00317,6.7066434 0 0 0 -0.63029,-1.00599 l 0.63029,-0.0671 c 0,0 1.30725,-8.47271 3.04637,-10.05996 0.40852,-0.36887 0.5019,-0.65948 0.39685,-0.88304 0.18675,-0.45828 -0.26845,-0.72656 -0.85205,-0.88304 l -0.12839,0.33534 a 8.7539625,8.3833043 0 0 0 -1.72745,-0.17886 c 0,0 -0.5836,-4.47109 1.29559,-6.05833 a 1.7858083,1.7101941 0 0 0 0.3735,-1.31897 7.936926,7.6008626 0 0 0 -0.19843,-1.8108 l -0.07,0.11178 a 67.405511,64.551443 0 0 0 -4.16688,-10.42883 c 0,0 -0.14007,-4.03516 1.01546,-5.65593 1.15552,-1.62078 -0.14007,-21.91955 -0.14007,-21.91955 0,0 0.43187,-9.81406 -0.87539,-14.38575 -1.30726,-4.5717 1.59905,-9.95937 1.59905,-9.95937 v -0.29062 -0.0671 c 0,0 -0.07,-0.6036 -0.17508,-1.5537 v 0.1006 c -0.29179,-2.60441 -0.84038,-7.31024 -1.24889,-9.47873 -0.5836,-3.09623 0.14006,-17.88438 0.14006,-17.88438 l 2.61452,-6.31542 4.66878,10.88712 4.92556,14.53105 a 12.897505,12.351401 0 0 1 2.50947,6.17011 c 0,0.1565 0,0.31299 0,0.45829 a 7.6217834,7.2990636 0 0 0 0,0.97247 9.0574332,8.6739255 0 0 0 1.50568,5.17529 c 0,0 1.30726,6.86314 3.33818,8.60686 2.03092,1.74373 2.03092,5.10823 2.03092,5.10823 0,0 2.46278,9.95936 3.62997,11.70309 0.98045,1.47546 1.02713,5.5218 1.01546,6.70665 v 0 0.36887 c 0,0 0.33849,3.55451 0.32682,6.55014 0,0.35769 0,0.72655 0,1.11778 v -0.0782 a 10.878257,10.417653 0 0 1 -0.30347,2.41439 v 0.14532 c 0,-0.16768 0,-0.34652 0,-0.503 a 25.981761,24.881647 0 0 0 -0.74701,6.20364 c -0.07,3.57688 0.5019,7.82442 2.76625,10.2947 3.92178,4.30343 6.38456,3.76689 6.38456,3.76689 0,0 -1.89086,5.3765 -4.21357,6.46073 a 1.400634,1.3413287 0 0 0 -0.24511,0.14532 c 0,-0.1006 0,-0.21238 -0.0584,-0.31298 a 2.7429083,2.6267687 0 0 0 -0.67698,2.01199 15.033472,14.396928 0 0 0 2.8713,7.96974 4.5987483,4.4040292 0 0 0 1.96089,1.11776 l -0.36183,0.21239 a 8.170365,7.8244173 0 0 1 -0.80536,0.36886 3.8050557,3.643943 0 0 1 -1.1672,0.29062 5.5325043,5.2982483 0 0 0 -4.10853,1.91139 c -1.44732,1.78844 -2.33439,4.23637 0.5019,6.38249 l 10.37636,3.42039 c 0,0 17.62465,2.28026 16.72591,-1.6096 z"
       style="fill:url(#a89cccf1-5da0-4e25-a4c3-8abfdc3a3dc7);stroke-width:1.00883877"
       inkscape:connector-curvature="0" />
    <g
       transform="matrix(1.167195,0,0,1.1177739,-88.750894,-88.170583)"
       id="g1156"
       style="stroke-width:0.88322842">
      <path
         d="m 753.94,844 -8.6,-3.06 c -2.38,-1.92 -1.62,-4.11 -0.42,-5.7 a 4.52,4.52 0 0 1 3.41,-1.72 3.11,3.11 0 0 0 1,-0.26 5.06,5.06 0 0 0 0.66,-0.33 c 2.41,-1.32 2.35,-4.57 2.35,-4.57 0,0 9.44,-2.77 12,0 a 6.69,6.69 0 0 1 0.9,1.23 13.74,13.74 0 0 1 1.45,6.54 c 0,0 0.48,3 1.26,6.43 0.78,3.43 -14.01,1.44 -14.01,1.44 z"
         transform="translate(-51.77,-49.02)"
         id="path201"
         inkscape:connector-curvature="0"
         style="fill:#2d293d;stroke-width:0.88322842" />
      <path
         style="fill:#2d293d;stroke-width:0.88322842"
         inkscape:connector-curvature="0"
         d="m 660.06,799.18 -8.61,-3.06 c -2.37,-1.92 -1.61,-4.11 -0.41,-5.71 a 4.53,4.53 0 0 1 3.4,-1.71 4.21,4.21 0 0 0 1.65,-0.59 3.9,3.9 0 0 0 1.36,-1.24 6.33,6.33 0 0 0 1,-3.33 c 0,0 9.45,-2.76 12,0 a 7.06,7.06 0 0 1 1.15,1.68 14,14 0 0 1 1.2,6.09 c 0,0 0.48,3 1.26,6.43 0.78,3.43 -14,1.44 -14,1.44 z"
         id="path199" />
      <path
         style="fill:#464353;stroke-width:0.88322842"
         inkscape:connector-curvature="0"
         d="m 715.17,769.1 a 23.62,23.62 0 0 0 -1.69,3.61 v 9.51 c -2.4,4 -14.92,2.65 -16.6,0.48 -1.68,-2.17 -3.49,-7.82 -1.57,-8.78 1.92,-0.96 3.49,-5.78 3.49,-5.78 0,0 -2,0.48 -5.29,-3.37 -3.29,-3.85 -2.28,-12.39 -1.68,-14.44 0.6,-2.05 0,-8.9 0,-8.9 0,0 0.12,-4.81 -0.84,-6.38 -0.96,-1.57 -3,-10.47 -3,-10.47 0,0 0,-3 -1.68,-4.57 -1.68,-1.57 -2.77,-7.7 -2.77,-7.7 a 7.89,7.89 0 0 1 -1.2,-5.17 c 0.36,-3 -2.05,-6.26 -2.05,-6.26 l -4.09,-13 -3.85,-9.75 -2.16,5.65 c 0,0 -0.61,13.24 -0.12,16 0.49,2.76 1.2,10.1 1.2,10.1 0,0 -2.41,4.82 -1.32,8.91 1.09,4.09 0.72,12.87 0.72,12.87 0,0 1.08,18.17 0.12,19.62 -0.96,1.45 -0.84,5 -0.84,5 0,0 4.93,10.59 3.36,12 -1.57,1.41 -1.08,5.42 -1.08,5.42 0,0 3.37,0 1.93,1.44 -1.44,1.44 -2.53,9 -2.53,9 l -14.57,1.84 a 30.8,30.8 0 0 1 -3.26,-6.14 c -1.92,-4.45 0.36,-4 2.3,-4.45 1.94,-0.45 0.71,-1.68 -1.58,-3.13 -2.29,-1.45 -1,-4.69 -1,-4.69 0,0 3.49,-5.9 2.29,-6.38 -1.2,-0.48 -1.33,-8.78 -1.33,-8.78 0,0 -2.4,-9.87 -1.8,-12.51 0.6,-2.64 -1.93,-9 -1.93,-9 l -0.84,-7.58 a 20.84,20.84 0 0 1 -2.6,-14.34 v -11.71 c 0,0 -3.37,-22.62 -3.86,-34 -0.3,-7.32 -0.22,-17.31 -0.12,-23.55 0.06,-3.49 0.12,-5.81 0.12,-5.81 l 52,-5.41 a 43.08,43.08 0 0 0 0.95,7.72 c 0.53,2.85 1.36,6.55 2.66,11.17 3.73,13.23 1.45,23.1 1.45,23.1 l -0.48,16.72 c 0,0 4.57,11.19 3.61,15 a 31.76,31.76 0 0 0 -1,7 c 0,0 10.23,24.43 9.15,31.53 -1.08,7.1 3.38,18.24 3.38,18.24 0,0 1.2,8 0,10.12 z"
         id="path207" />
    </g>
    <path
       id="path243"
       d="m 730.53829,492.77005 -1.05047,4.91821 0.0584,2.23554 v 1.6096 l -5.83598,0.58124 -0.65363,-1.11778 v 0 c -1.16719,-2.10141 -3.73502,-6.38248 -4.55206,-7.04197 -1.08549,-0.87187 -3.01136,-14.53106 -0.70032,-13.71509 a 6.1161018,5.8571352 0 0 1 3.26815,2.82797 c 0,0 11.54356,1.16249 9.46595,9.70228 z"
       inkscape:connector-curvature="0"
       style="fill:#ffcdd3;stroke-width:1.00883877" />
    <path
       id="path247"
       d="m 731.06353,504.13781 -7.71516,1.72137 -0.16341,-1.11778 -0.44353,-2.9621 a 5.3107372,5.0858713 0 0 1 7.48172,-0.98363 l 0.38517,1.50899 z"
       inkscape:connector-curvature="0"
       style="fill:#dce6f2;stroke-width:1.00883877" />
    <path
       id="path249"
       d="m 605.89354,493.30657 -8.2404,4.24756 -0.747,-1.49783 c -0.7937,-1.57606 -1.96089,-3.94573 -2.33439,-4.79525 -0.49023,-1.30779 -3.93345,-2.9621 -3.93345,-2.9621 -8.63724,-7.90266 1.64574,-14.68755 1.64574,-14.68755 5.45081,-10.49589 11.52022,3.55452 11.52022,3.55452 0,0 0.84038,7.41084 0.24511,7.90267 -0.59527,0.49182 -0.59527,2.52616 -0.59527,2.52616 a 32.086191,30.727604 0 0 1 1.9959,4.47111 c 0.31515,0.78243 0.44354,1.24071 0.44354,1.24071 z"
       inkscape:connector-curvature="0"
       style="fill:#ffcdd3;stroke-width:1.00883877" />
    <path
       id="path251"
       d="m 605.89354,493.30657 -8.2404,4.24756 -0.747,-1.49783 c 1.16719,-0.92774 5.28739,-4.13576 6.64134,-3.99044 a 9.6643746,9.255168 0 0 0 1.96088,0 c 0.25679,0.78243 0.38518,1.24071 0.38518,1.24071 z"
       inkscape:connector-curvature="0"
       style="opacity:0.1;stroke-width:1.00883877" />
    <path
       id="path253"
       d="m 606.73392,495.69861 -9.26753,4.37051 -0.18675,-1.91141 -0.12839,-1.30779 c 0,0 5.36909,-4.41521 7.00317,-4.24754 a 8.6138991,8.2491714 0 0 0 2.42776,0 l 0.10505,1.59842 z"
       inkscape:connector-curvature="0"
       style="fill:#dce6f2;stroke-width:1.00883877" />
    <path
       id="path255"
       d="m 708.06979,525.38669 c 0,0 -40.41996,4.37049 -32.86821,2.02317 5.26405,-1.64312 7.35333,-4.83996 7.79686,-8.39448 a 21.347997,20.444085 0 0 0 -1.50568,-8.94219 40.58337,38.864998 0 0 0 -3.61831,-6.99726 c 0,0 30.89566,-16.27479 24.72119,-1.47547 a 24.230968,23.204986 0 0 0 -1.75079,7.00845 20.636008,19.762243 0 0 0 0.78202,7.08668 22.071657,21.137104 0 0 0 6.44292,9.6911 z"
       inkscape:connector-curvature="0"
       style="fill:#ffcdd3;stroke-width:1.00883877" />
    <ellipse
       ry="16.006521"
       rx="16.714231"
       id="circle259"
       cy="495.81042"
       cx="690.09503"
       style="fill:#ffcdd3;stroke-width:1.00883877" />
    <path
       id="path263"
       d="m 731.06353,504.13781 -7.71516,1.72137 -0.16341,-1.11778 a 6.8164188,6.5277996 0 0 1 7.42336,-2.43674 z"
       inkscape:connector-curvature="0"
       style="opacity:0.1;stroke-width:1.00883877" />
    <path
       id="path269"
       d="m 739.66576,619.35794 c 0,0 -51.54333,8.47273 -57.07584,6.85196 -5.5325,-1.62078 -33.93036,0.1453 -33.93036,0.1453 -12.78078,8.19329 -7.43503,-3.90102 -7.43503,-3.90102 0,0 -1.16719,-6.3266 0.42019,-11.43483 a 73.124767,70.028535 0 0 0 2.10095,-11.43482 c 0,0 -0.28012,-8.07034 1.26057,-9.9482 1.5407,-1.87786 3.3732,-15.33586 3.3732,-15.33586 0,0 1.4123,-9.14339 1.27224,-11.17773 -0.14006,-2.03436 0.42019,-7.65676 0.42019,-7.65676 l 1.82082,-9.42283 c -10.50475,-1.34132 -42.55593,-20.17582 -42.55593,-20.17582 -1.54069,-6.31541 -13.4811,-21.11475 -13.4811,-21.11475 a 16.259026,15.570591 0 0 0 -0.98044,-3.63276 c -0.84038,-2.14612 11.80034,-6.44955 11.80034,-6.44955 0,0 9.40759,11.03242 11.36848,13.98335 1.96089,2.95091 8.70727,8.47273 8.70727,8.47273 a 6.8047469,6.5166218 0 0 1 3.09307,0.39121 h 0.16341 v 0 a 24.907941,23.853296 0 0 1 6.27951,3.45393 12.173844,11.658382 0 0 1 8.56721,3.09623 c 0,0 5.76594,-0.8048 6.74638,0.13413 0.98045,0.93893 5.83598,0 5.83598,0 0,0 4.92556,-9.94819 8.17036,-7.06434 3.24481,2.88386 16.936,2.76091 16.936,2.76091 1.8325,-2.32497 6.26784,-3.99046 9.05744,-4.85114 a 12.057124,11.546604 0 0 1 7.31831,-0.11177 9.0574332,8.6739255 0 0 1 2.89464,1.34132 l 8.31043,7.82442 c 0,0 2.33439,-2.9621 2.11262,-3.63276 -0.22176,-0.67067 2.81294,-1.2072 2.81294,-1.2072 0,0 4.07352,-1.2072 5.61421,-1.62078 1.5407,-0.41357 2.96468,1.2072 3.0814,1.34134 a 16.445778,15.749434 0 0 1 -0.70032,-5.91303 7.00317,6.7066434 0 0 0 -1.68076,-4.83996 c 4.96058,-11.49072 16.0606,-1.76608 16.0606,-1.76608 0,0 1.26057,6.31542 0.14007,8.74099 -1.12051,2.42557 1.16719,7.5338 0.84038,8.87513 -0.32682,1.34132 0.56025,3.63276 0.56025,6.18128 a 38.400715,36.774761 0 0 1 -2.24101,9.55697 c -0.85206,2.14613 -7.58677,6.98609 -7.58677,6.98609 0,0 -0.42019,7.66793 -3.3732,12.10549 -2.953,4.43756 -1.16719,19.63929 -1.16719,19.63929 0,0 2.80127,11.83722 6.31452,15.64883 3.51326,3.81161 8.75397,25.16109 8.75397,25.16109 z"
       inkscape:connector-curvature="0"
       style="fill:#3f3d56;stroke-width:1.00883877" />
    <path
       id="path271"
       d="m 664.53342,530.90849 c 0,0 -1.5407,-4.47109 -2.95301,-4.85114 a 33.253386,31.845378 0 0 1 -4.07351,-1.74373 l 0.91041,-1.65429 c 0,0 5.27572,1.38603 6.11611,2.86149 0.84038,1.47547 0,5.38767 0,5.38767 z"
       inkscape:connector-curvature="0"
       style="opacity:0.1;stroke-width:1.00883877" />
    <path
       id="path273"
       d="m 636.34566,521.08326 c -0.28013,1.35251 -12.76912,2.5597 -12.76912,2.5597 l 6.31453,-6.06951 v 0 l 0.1634,0.0559 v 0 a 24.907941,23.853296 0 0 1 6.29119,3.45392 z"
       inkscape:connector-curvature="0"
       style="opacity:0.1;stroke-width:1.00883877" />
    <ellipse
       ry="1.0730629"
       rx="1.1205071"
       id="circle275"
       cy="502.62878"
       cx="600.13928"
       style="fill:#575988;stroke-width:1.00883877" />
    <ellipse
       ry="1.0730629"
       rx="1.1205071"
       id="circle277"
       cy="504.7861"
       cx="601.57489"
       style="fill:#575988;stroke-width:1.00883877" />
    <ellipse
       ry="1.0730629"
       rx="1.1205071"
       id="circle279"
       cy="506.76462"
       cx="602.98724"
       style="fill:#575988;stroke-width:1.00883877" />
    <ellipse
       ry="1.0730629"
       rx="1.1205071"
       id="circle281"
       cy="508.92188"
       cx="604.45789"
       style="fill:#575988;stroke-width:1.00883877" />
    <ellipse
       ry="0.8718636"
       rx="0.91041207"
       id="circle283"
       cy="508.79892"
       cx="736.84119"
       style="fill:#575988;stroke-width:1.00883877" />
    <ellipse
       ry="0.8718636"
       rx="0.91041207"
       id="circle285"
       cy="510.78854"
       cx="736.9812"
       style="fill:#575988;stroke-width:1.00883877" />
    <ellipse
       ry="0.8718636"
       rx="0.91041207"
       id="circle287"
       cy="512.76703"
       cx="737.0979"
       style="fill:#575988;stroke-width:1.00883877" />
    <path
       id="path289"
       d="m 664.60345,567.34793 c -0.12839,-0.1565 31.51426,38.12726 56.10706,16.00652 0,0 -38.84425,5.04115 -56.10706,-16.00652 z"
       inkscape:connector-curvature="0"
       style="opacity:0.1;stroke-width:1.00883877" />
    <path
       id="path293"
       d="m 646.76871,587.25547 c 0,0 18.11486,0.46947 20.01739,5.44356 v 5.18648 a 3.501585,3.3533217 0 0 1 -3.37319,0 c -1.8325,-0.95011 -12.83915,-6.25953 -16.6442,-3.69983 z"
       inkscape:connector-curvature="0"
       style="fill:#3f3d56;stroke-width:1.00883877" />
    <path
       id="path295"
       d="m 656.7599,547.82041 a 61.020955,58.43722 0 0 0 7.34165,12.06079 49.197269,47.114171 0 0 0 11.50855,10.6412 c 0,0 -18.53506,-20.16464 -18.8502,-22.70199 z"
       inkscape:connector-curvature="0"
       style="opacity:0.1;stroke-width:1.00883877" />
    <path
       id="path297"
       d="m 650.56209,526.7839 c 0,0 3.1631,13.06679 11.29845,17.50435 z"
       inkscape:connector-curvature="0"
       style="opacity:0.1;stroke-width:1.00883877" />
    <path
       id="path299"
       d="m 645.68322,528.10289 c -0.0817,-0.24592 -2.81294,10.32822 10.50475,16.18536 0,0 -5.62588,-1.83315 -10.50475,-16.18536 z"
       inkscape:connector-curvature="0"
       style="opacity:0.1;stroke-width:1.00883877" />
    <path
       id="path301"
       d="m 728.43734,519.33953 c -0.21009,0 6.55964,4.13577 8.40381,6.04716 0,0 -4.40033,-6.31542 -8.40381,-6.04716 z"
       inkscape:connector-curvature="0"
       style="opacity:0.1;stroke-width:1.00883877" />
    <path
       id="path303"
       d="m 685.57794,510.30792 a 3.5599447,3.4092104 0 0 0 1.29559,2.16848 3.6533204,3.4986323 0 0 0 1.57571,0.33533 c 5.10064,0.3018 10.39971,0.51418 15.17354,-1.36368 a 5.6492238,5.4100257 0 0 0 2.33439,-1.46428 9.0924491,8.7074587 0 0 0 1.23722,-3.52099 c 0.6653,-2.39204 2.07761,-4.47109 3.09307,-6.79607 a 23.845794,22.836121 0 0 0 1.64574,-12.20609 8.5321955,8.1709272 0 0 0 -1.27224,-3.57688 c -1.35394,-1.84432 -3.81673,-2.59323 -5.60253,-4.0687 -1.78581,-1.47545 -2.94134,-3.72218 -5.01894,-4.82877 a 9.7577502,9.3445898 0 0 0 -6.30286,-0.53653 33.300073,31.890089 0 0 0 -11.76532,4.23636 c -1.1672,0.71537 -2.54449,1.53135 -3.93345,1.28544 a 5.4041128,5.1752931 0 0 1 -2.89464,-2.12378 15.547037,14.888749 0 0 0 -1.2489,6.96374 3.501585,3.3533217 0 0 1 0,1.0507 3.501585,3.3533217 0 0 1 -0.78202,1.11778 c -1.26057,1.39721 -2.04259,3.61041 -0.80537,5.0188 0.54859,0.61478 1.37729,0.95011 1.90253,1.57607 0.94543,1.11777 0.61861,2.73854 0.59527,4.18047 a 2.33439,2.2355478 0 0 0 0.3735,1.41957 2.1709827,2.0790594 0 0 0 2.06594,0.46947 5.6492238,5.4100257 0 0 1 2.19433,-0.2012 3.7000082,3.5433433 0 0 1 1.9142,1.40839 c 2.31104,2.86151 3.23313,6.00245 4.22524,9.45637 z"
       inkscape:connector-curvature="0"
       style="fill:#2d293d;stroke-width:1.00883877" />
    <path
       id="path309"
       d="m 682.58992,520.0102 c 0,0 20.88112,2.64913 22.7603,-0.35769"
       inkscape:connector-curvature="0"
       style="opacity:0.1;stroke-width:1.00883877" />
    <path
       id="path311"
       d="m 723.18496,511.73867 c 0,0 11.59025,0 14.14641,4.18048"
       inkscape:connector-curvature="0"
       style="opacity:0.1;stroke-width:1.00883877" />
    <ellipse
       id="ellipse31"
       ry="20.379999"
       rx="186.30949"
       cy="755.52008"
       cx="279.52631"
       style="opacity:0.31300001;fill:#373748;stroke-width:0.96523941" />
    <g
       transform="translate(-19.413072,-15.167169)"
       id="g1205">
      <path
         style="fill:#464353"
         inkscape:connector-curvature="0"
         d="m 375.16205,679.93462 c -3,3.95 -6,8.51 -5.3,13.39 0.4,2.63 1.87,4.95 2.95,7.39 a 52.09,52.09 0 0 1 3,10.38 c 1.11,5.17 2.22,10.35 2.91,15.59 a 97.36,97.36 0 0 1 0.65,17.9 c -0.09,1.44 -0.25,3 -1.25,4 -0.4,0.4 -0.92,0.73 -1.09,1.27 a 2.15,2.15 0 0 0 0.23,1.5 16.61,16.61 0 0 0 8.9,8.19 34.09,34.09 0 0 0 12.1,2.26 3.4,3.4 0 0 0 1.62,-0.21 3.12,3.12 0 0 0 1.25,-1.43 c 3,-5.7 1.33,-12.58 1.38,-19 0,-5.37 1.3,-10.69 1.07,-16.06 -0.19,-4.3 -1.34,-8.5 -1.76,-12.79 -0.69,-7 0.6,-14.1 1.89,-21.05 1,-5.32 2,-10.65 3.25,-15.92 a 30.36,30.36 0 0 1 3.44,-9.24 c 1.4,-2.21 3.3,-4.06 4.9,-6.14 a 27.87,27.87 0 0 0 5.48,-20.37 c -0.1,-0.72 -10.3,2.58 -11.18,3 a 34.66,34.66 0 0 0 -10,6.41 c -2.36,2.24 -4.21,5.24 -6.28,7.76 q -4.38,5.33 -8.62,10.72 -4.84,6.18 -9.54,12.45 z"
         id="path137" />
      <g
         id="g1141">
        <path
           id="path125"
           d="m 356.60205,612.07462 c 0.58,6.32 -4.19,12.44 -2.8,18.62 0.3,1.32 0.87,2.57 1.08,3.9 0.57,3.67 -1.62,7.15 -3.71,10.22 l -17.94,26.34 a 17.07,17.07 0 0 1 -2.57,3.17 c -3.44,3 -8.58,2.73 -13.09,3.64 a 22.45,22.45 0 0 0 -8.76,3.88 0.57,0.57 0 0 0 -0.12,0.79 7.55,7.55 0 0 0 6.52,3.06 c 0.47,0.62 0,1.53 -0.65,2 -1,0.67 -2.29,0.84 -2.48,2.48 a 2.68,2.68 0 0 0 0.33,1.64 5.07,5.07 0 0 0 3.14,2.18 c 6.21,1.9 12.93,-1.43 17.57,-6 4.64,-4.57 8,-10.27 12.56,-14.9 2.53,-2.55 5.4,-4.75 8,-7.23 5.2,-4.94 9.23,-11 13.13,-17 a 18.87,18.87 0 0 0 2.84,-5.78 c 0.48,-2.06 0.26,-4.23 0.82,-6.27 0.72,-2.66 2.68,-4.79 4.3,-7 3.19,-4.38 5.31,-9.75 4.89,-15.15 -0.42,-5.4 -3.76,-10.74 -8.86,-12.57 a 7.93,7.93 0 0 0 -5,-0.31 c -2.09,0.65 -3.63,2.38 -5.06,4 l -3.4,3.94 a 9.08,9.08 0 0 0 -2,3 3.15,3.15 0 0 0 0.7,3.35"
           inkscape:connector-curvature="0"
           style="fill:#fbbebe" />
        <path
           id="path127"
           d="m 356.60205,612.07462 c 0.58,6.32 -4.19,12.44 -2.8,18.62 0.3,1.32 0.87,2.57 1.08,3.9 0.57,3.67 -1.62,7.15 -3.71,10.22 l -17.94,26.34 a 17.07,17.07 0 0 1 -2.57,3.17 c -3.44,3 -8.58,2.73 -13.09,3.64 a 22.45,22.45 0 0 0 -8.76,3.88 0.57,0.57 0 0 0 -0.12,0.79 7.55,7.55 0 0 0 6.52,3.06 c 0.47,0.62 0,1.53 -0.65,2 -1,0.67 -2.29,0.84 -2.48,2.48 a 2.68,2.68 0 0 0 0.33,1.64 5.07,5.07 0 0 0 3.14,2.18 c 6.21,1.9 12.93,-1.43 17.57,-6 4.64,-4.57 8,-10.27 12.56,-14.9 2.53,-2.55 5.4,-4.75 8,-7.23 5.2,-4.94 9.23,-11 13.13,-17 a 18.87,18.87 0 0 0 2.84,-5.78 c 0.48,-2.06 0.26,-4.23 0.82,-6.27 0.72,-2.66 2.68,-4.79 4.3,-7 3.19,-4.38 5.31,-9.75 4.89,-15.15 -0.42,-5.4 -3.76,-10.74 -8.86,-12.57 a 7.93,7.93 0 0 0 -5,-0.31 c -2.09,0.65 -3.63,2.38 -5.06,4 l -3.4,3.94 a 9.08,9.08 0 0 0 -2,3 3.15,3.15 0 0 0 0.7,3.35"
           inkscape:connector-curvature="0"
           style="opacity:0.05" />
        <path
           id="path129"
           d="m 219.94205,638.92462 c 1,3.16 2,6.32 3.21,9.4 a 79.54,79.54 0 0 0 8.31,15.16 109.23,109.23 0 0 0 6.87,9 c 3.06,3.61 6.48,7.24 7.56,11.85 0.63,2.66 0.42,5.45 0.68,8.17 0.26,2.72 1.15,5.61 3.35,7.24 a 12.45,12.45 0 0 0 5.52,1.82 c 1.38,0.22 3.11,0.29 3.83,-0.91 a 3.41,3.41 0 0 0 0.38,-1.58 l 0.34,-4 c 0.07,-0.86 0.37,-2 1.23,-2 0.86,0 1.3,1.11 2,1.62 a 2.17,2.17 0 0 0 3,-1 5,5 0 0 0 0.08,-3.5 16.62,16.62 0 0 0 -8.53,-10.57 25.64,25.64 0 0 1 -4.16,-2.17 14.15,14.15 0 0 1 -3.27,-4.12 c -7.56,-12.45 -15.16,-25 -20.5,-38.51 a 28.49,28.49 0 0 1 -2.11,-7.59 49,49 0 0 1 0.33,-8 45.79,45.79 0 0 0 -1.32,-14.28 11.23,11.23 0 0 0 -1.37,-3.47 c -2.19,-3.34 -7.36,-3.83 -10.62,-1.53 a 10.94,10.94 0 0 0 -4.22,7.72 c -0.24,2.69 1.32,5.5 2.11,8 q 3.67,11.62 7.3,23.25 z"
           inkscape:connector-curvature="0"
           style="fill:#a1616a" />
        <path
           id="path131"
           d="m 219.94205,638.92462 c 1,3.16 2,6.32 3.21,9.4 a 79.54,79.54 0 0 0 8.31,15.16 109.23,109.23 0 0 0 6.87,9 c 3.06,3.61 6.48,7.24 7.56,11.85 0.63,2.66 0.42,5.45 0.68,8.17 0.26,2.72 1.15,5.61 3.35,7.24 a 12.45,12.45 0 0 0 5.52,1.82 c 1.38,0.22 3.11,0.29 3.83,-0.91 a 3.41,3.41 0 0 0 0.38,-1.58 l 0.34,-4 c 0.07,-0.86 0.37,-2 1.23,-2 0.86,0 1.3,1.11 2,1.62 a 2.17,2.17 0 0 0 3,-1 5,5 0 0 0 0.08,-3.5 16.62,16.62 0 0 0 -8.53,-10.57 25.64,25.64 0 0 1 -4.16,-2.17 14.15,14.15 0 0 1 -3.27,-4.12 c -7.56,-12.45 -15.16,-25 -20.5,-38.51 a 28.49,28.49 0 0 1 -2.11,-7.59 49,49 0 0 1 0.33,-8 45.79,45.79 0 0 0 -1.32,-14.28 11.23,11.23 0 0 0 -1.37,-3.47 c -2.19,-3.34 -7.36,-3.83 -10.62,-1.53 a 10.94,10.94 0 0 0 -4.22,7.72 c -0.24,2.69 1.32,5.5 2.11,8 q 3.67,11.62 7.3,23.25 z"
           inkscape:connector-curvature="0"
           style="opacity:0.05" />
        <path
           id="path133"
           d="m 371.69205,757.66462 c -3.92,2.39 -8.8,2.53 -13.36,2 -0.73,-0.09 -1.6,-0.15 -2.07,0.42 -0.68,0.82 0.12,2 0.95,2.7 a 19.88,19.88 0 0 0 9.18,3.77 62.62,62.62 0 0 0 9,0.6 c 8.19,0.14 16.42,0.27 24.53,-0.91 a 3.25,3.25 0 0 0 1.34,-0.39 2.54,2.54 0 0 0 1,-1.54 6.13,6.13 0 0 0 -2.14,-5.84 18,18 0 0 0 -5.72,-3.07 l -7.12,-2.77 c -1.67,-0.65 -4.36,-2.38 -6.17,-2.24 -3.36,0.22 -6.59,5.61 -9.42,7.27 z"
           inkscape:connector-curvature="0"
           style="fill:#3f3d56" />
        <path
           id="path135"
           d="m 389.58205,774.39462 a 17.49,17.49 0 0 1 -11.95,4.46 c -1.12,0 -2.68,0.21 -2.68,1.33 a 1.76,1.76 0 0 0 0.32,0.93 11,11 0 0 0 6.18,4.84 22,22 0 0 0 7.46,0.47 l 7.3,-0.38 c 1.38,-0.07 2.77,-0.14 4.14,-0.31 1.37,-0.17 2.86,-0.45 4.29,-0.67 a 57.22,57.22 0 0 1 10.63,-0.5 3.09,3.09 0 0 0 2.62,-0.7 c 0.65,-0.82 0.27,-2 0.06,-3 -0.44,-2.11 0,-4.33 -0.41,-6.46 -0.7,-3.72 -3.9,-6.58 -7.45,-7.93 -3.28,-1.25 -9.1,-2.68 -12.21,-0.6 -3.34,2.21 -5.35,5.85 -8.3,8.52 z"
           inkscape:connector-curvature="0"
           style="fill:#3f3d56" />
        <path
           id="path139"
           d="m 375.16205,679.93462 c -3,3.95 -6,8.51 -5.3,13.39 0.4,2.63 1.87,4.95 2.95,7.39 a 52.09,52.09 0 0 1 3,10.38 c 1.11,5.17 2.22,10.35 2.91,15.59 a 97.36,97.36 0 0 1 0.65,17.9 c -0.09,1.44 -0.25,3 -1.25,4 -0.4,0.4 -0.92,0.73 -1.09,1.27 a 2.15,2.15 0 0 0 0.23,1.5 16.61,16.61 0 0 0 8.9,8.19 34.09,34.09 0 0 0 12.1,2.26 3.4,3.4 0 0 0 1.62,-0.21 3.12,3.12 0 0 0 1.25,-1.43 c 3,-5.7 1.33,-12.58 1.38,-19 0,-5.37 1.3,-10.69 1.07,-16.06 -0.19,-4.3 -1.34,-8.5 -1.76,-12.79 -0.69,-7 0.6,-14.1 1.89,-21.05 1,-5.32 2,-10.65 3.25,-15.92 a 30.36,30.36 0 0 1 3.44,-9.24 c 1.4,-2.21 3.3,-4.06 4.9,-6.14 a 27.87,27.87 0 0 0 5.48,-20.37 c -0.1,-0.72 -10.3,2.58 -11.18,3 a 34.66,34.66 0 0 0 -10,6.41 c -2.36,2.24 -4.21,5.24 -6.28,7.76 q -4.38,5.33 -8.62,10.72 -4.84,6.18 -9.54,12.45 z"
           inkscape:connector-curvature="0"
           style="opacity:0.05" />
        <path
           id="path141"
           d="m 396.82205,649.55462 c 0.64,3.06 3.61,5.4 3.69,8.53 0.07,2.5 -1.71,4.6 -3,6.75 a 45.27,45.27 0 0 0 -3.06,6.94 105.82,105.82 0 0 1 -9,17.87 c -1.71,2.72 -3.63,5.67 -3.23,8.86 a 13.08,13.08 0 0 0 1.55,4.23 l 5.14,10.21 a 29.3,29.3 0 0 1 2.62,6.45 c 0.45,1.94 0.49,4 0.75,5.92 0.81,6.26 3.74,12.56 2,18.63 -0.15,0.52 -0.7,1.15 -1.11,0.79 1.7,3.17 3.07,6.37 2.93,10 -0.06,1.89 -0.64,3.85 0.06,5.61 a 6.12,6.12 0 0 1 0.78,2.14 c 0,0.51 -0.24,1 -0.29,1.51 -0.14,1.44 1.18,2.65 2.56,3.11 1.38,0.46 2.88,0.43 4.27,0.84 2.68,0.8 4.58,3.1 6.88,4.7 a 14.45,14.45 0 0 0 7.89,2.57 2,2 0 0 0 1.16,-0.23 1.9,1.9 0 0 0 0.65,-1.41 7.84,7.84 0 0 0 -2.83,-6.81 3.15,3.15 0 0 1 -1,-1.1 2.67,2.67 0 0 1 -0.1,-1.23 91.21,91.21 0 0 0 -0.3,-16.85 26,26 0 0 1 -0.26,-5.36 21.91,21.91 0 0 0 0.43,-4.47 22.82,22.82 0 0 0 -1.37,-4.27 c -0.79,-2.55 -0.57,-5.29 -0.65,-8 a 70.12,70.12 0 0 0 -2.26,-13.69 10.39,10.39 0 0 0 -2.13,-4.94 c -1.07,-1.12 -2.8,-2.18 -2.39,-3.67 a 4.24,4.24 0 0 1 1,-1.46 5.86,5.86 0 0 0 1.23,-4.47 2,2 0 0 0 2.3,-1.08 36,36 0 0 0 18.08,-20.56 6.68,6.68 0 0 1 0.81,-1.83 c 0.77,-1.08 2.12,-1.55 3.31,-2.15 3.74,-1.88 6.32,-5.41 8.69,-8.86 a 20.61,20.61 0 0 0 3.36,-6.43 21.18,21.18 0 0 0 0.46,-4.64 l 0.21,-8 a 4.59,4.59 0 0 0 -0.15,-1.57 4,4 0 0 0 -0.87,-1.28 15.53,15.53 0 0 0 -8.54,-4.6 c -2.19,-0.39 -4.43,-0.32 -6.65,-0.5 -4.3,-0.36 -8.55,-1.69 -12.86,-1.38 -6.76,0.5 -12.78,5.19 -16,11.17 -1.18,2.14 -2.36,3.94 -4.76,4.01 z"
           inkscape:connector-curvature="0"
           style="fill:#464353" />
        <path
           id="path143"
           d="m 172.43205,772.02462 a 10.89,10.89 0 0 0 4.6,0.55 c 0.11,-1.27 1.82,-1.55 3.09,-1.49 a 3.55,3.55 0 0 1 1.82,0.4 c 0.32,0.2 0.56,0.5 0.87,0.71 a 3.74,3.74 0 0 0 1.8,0.46 l 6.62,0.56 c 2.95,0.25 6,0.48 8.78,-0.58 a 2.87,2.87 0 0 0 1.41,-0.94 c 0.75,-1.07 0,-2.61 -1,-3.39 -1,-0.78 -2.37,-1.14 -3.41,-1.94 -2.3,-1.75 -2.61,-5 -3.83,-7.64 a 22.05,22.05 0 0 0 -3.16,-4.59 17.57,17.57 0 0 0 -3.13,-3.2 c -2.65,-1.92 -5.71,-1.88 -8.82,-2.15 -2.2,-0.2 -4.27,-0.33 -5.85,1.62 -1.95,2.42 -1.17,7.3 -1.05,10.19 a 72.94,72.94 0 0 0 1.26,11.43 z"
           inkscape:connector-curvature="0"
           style="fill:#514e7f" />
        <path
           id="path145"
           d="m 172.43205,772.02462 a 10.89,10.89 0 0 0 4.6,0.55 c 0.11,-1.27 1.82,-1.55 3.09,-1.49 a 3.55,3.55 0 0 1 1.82,0.4 c 0.32,0.2 0.56,0.5 0.87,0.71 a 3.74,3.74 0 0 0 1.8,0.46 l 6.62,0.56 c 2.95,0.25 6,0.48 8.78,-0.58 a 2.87,2.87 0 0 0 1.41,-0.94 c 0.75,-1.07 0,-2.61 -1,-3.39 -1,-0.78 -2.37,-1.14 -3.41,-1.94 -2.3,-1.75 -2.61,-5 -3.83,-7.64 a 22.05,22.05 0 0 0 -3.16,-4.59 17.57,17.57 0 0 0 -3.13,-3.2 c -2.65,-1.92 -5.71,-1.88 -8.82,-2.15 -2.2,-0.2 -4.27,-0.33 -5.85,1.62 -1.95,2.42 -1.17,7.3 -1.05,10.19 a 72.94,72.94 0 0 0 1.26,11.43 z"
           inkscape:connector-curvature="0"
           style="opacity:0.05" />
        <path
           id="path147"
           d="m 175.11205,643.34462 c -2,0.65 -2.9,3.17 -2.53,5.27 0.37,2.1 1.63,3.9 2.67,5.75 2.94,5.27 4.22,11.3 6.69,16.8 1.85,4.11 4.35,7.91 6.18,12 1.83,4.09 3,8.77 1.85,13.14 -0.54,2.13 -1.58,4.09 -2.28,6.17 a 35,35 0 0 0 -1.34,7 132.68,132.68 0 0 0 -0.48,24.16 7.34,7.34 0 0 0 0.61,2.86 c 0.41,0.8 1.13,1.64 0.78,2.47 -0.14,0.33 -0.44,0.57 -0.59,0.9 -0.42,0.92 0.43,1.88 1.2,2.53 a 2.07,2.07 0 0 1 -1.3,1 3.07,3.07 0 0 1 1.31,3.42 c -0.69,0.1 -0.73,1.15 -0.29,1.7 0.44,0.55 1.11,0.9 1.42,1.52 a 2.13,2.13 0 0 1 -1.17,2.68 5.48,5.48 0 0 1 -3.19,0.24 34.58,34.58 0 0 1 -5.34,-1.17 4.8,4.8 0 0 1 -1.64,-0.75 4.87,4.87 0 0 1 -1.47,-3.24 58.55,58.55 0 0 1 -0.37,-10 c 0.29,-16.16 0,-32.34 -0.7,-48.49 -0.29,-6.5 -2.24,-12.84 -4.76,-18.84 a 96.67,96.67 0 0 0 -4.64,-9 c -3.62,-6.66 -6.84,-14 -6,-21.55 0.09,-0.81 0.39,-1.79 1.19,-1.92 a 1.73,1.73 0 0 1 0.92,0.15 42.53,42.53 0 0 1 4.85,2.68 18.38,18.38 0 0 0 8.42,2.52 z"
           inkscape:connector-curvature="0"
           style="fill:#464353" />
        <path
           id="path149"
           d="m 175.11205,643.34462 c -2,0.65 -2.9,3.17 -2.53,5.27 0.37,2.1 1.63,3.9 2.67,5.75 2.94,5.27 4.22,11.3 6.69,16.8 1.85,4.11 4.35,7.91 6.18,12 1.83,4.09 3,8.77 1.85,13.14 -0.54,2.13 -1.58,4.09 -2.28,6.17 a 35,35 0 0 0 -1.34,7 132.68,132.68 0 0 0 -0.48,24.16 7.34,7.34 0 0 0 0.61,2.86 c 0.41,0.8 1.13,1.64 0.78,2.47 -0.14,0.33 -0.44,0.57 -0.59,0.9 -0.42,0.92 0.43,1.88 1.2,2.53 a 2.07,2.07 0 0 1 -1.3,1 3.07,3.07 0 0 1 1.31,3.42 c -0.69,0.1 -0.73,1.15 -0.29,1.7 0.44,0.55 1.11,0.9 1.42,1.52 a 2.13,2.13 0 0 1 -1.17,2.68 5.48,5.48 0 0 1 -3.19,0.24 34.58,34.58 0 0 1 -5.34,-1.17 4.8,4.8 0 0 1 -1.64,-0.75 4.87,4.87 0 0 1 -1.47,-3.24 58.55,58.55 0 0 1 -0.37,-10 c 0.29,-16.16 0,-32.34 -0.7,-48.49 -0.29,-6.5 -2.24,-12.84 -4.76,-18.84 a 96.67,96.67 0 0 0 -4.64,-9 c -3.62,-6.66 -6.84,-14 -6,-21.55 0.09,-0.81 0.39,-1.79 1.19,-1.92 a 1.73,1.73 0 0 1 0.92,0.15 42.53,42.53 0 0 1 4.85,2.68 18.38,18.38 0 0 0 8.42,2.52 z"
           inkscape:connector-curvature="0"
           style="opacity:0.05" />
        <path
           id="path151"
           d="m 147.79205,623.69462 a 7.11,7.11 0 0 0 -3.52,-1.11 7.14,7.14 0 0 0 -3.83,1.9 40.17,40.17 0 0 0 -3.8,3.34 20.33,20.33 0 0 0 -4.54,20.11 c 1.21,3.59 3.4,6.76 5.56,9.86 l 4.4,6.32 c 6.71,9.64 13.43,19.28 20.46,28.69 a 1.08,1.08 0 0 0 0.76,1 c 0.26,0.07 0.57,0.06 0.73,0.27 a 0.78,0.78 0 0 1 0.09,0.43 6.53,6.53 0 0 1 -0.39,2 0.93,0.93 0 0 0 -0.08,0.69 c 0.22,0.53 1.19,0.23 1.49,0.73 0.21,0.32 0,0.75 -0.32,1 -0.32,0.25 -0.6,0.59 -0.55,1 0.05,0.41 0.72,0.79 0.69,1.29 0,0.28 -0.24,0.49 -0.41,0.71 a 1.81,1.81 0 0 0 0.22,2.31 c 0.46,4.6 -2,8.95 -2.53,13.55 -0.79,7.23 2.48,14.29 2.88,21.55 a 5.77,5.77 0 0 0 0.45,2.38 c 0.68,1.25 2.42,2 2.36,3.43 a 13.09,13.09 0 0 1 -0.49,1.73 13.91,13.91 0 0 0 0.26,2.47 c 0,0.83 -0.7,1.82 -1.47,1.5 q 0.87,2.88 1.54,5.81 l 15.4,1.27 a 13.83,13.83 0 0 0 -0.14,-4.16 c -0.32,-1.48 -1,-2.87 -1.34,-4.35 a 5.13,5.13 0 0 1 0.61,-4.35 1.7,1.7 0 0 1 -1.7,-1.4 6.86,6.86 0 0 1 0,-2.39 c 0.41,-4 -1.28,-8 -1.23,-12 0.05,-3.18 1.16,-6.23 1.73,-9.35 1.2,-6.68 -0.05,-13.93 2.92,-20 1.8,-3.68 4.29,-7.76 2.27,-11.32 -1,-1.76 -2.75,-3 -3.89,-4.62 a 18.77,18.77 0 0 1 -2.09,-5 c -2.38,-7.36 -6.21,-14.15 -9.58,-21.12 a 22.23,22.23 0 0 1 -2.06,-5.55 28.21,28.21 0 0 1 -0.25,-5.12 78.48,78.48 0 0 0 -0.57,-9.2 8.61,8.61 0 0 0 -1.12,-3.81 8.53,8.53 0 0 0 -2.4,-2.19 c -5.05,-3.44 -11.07,-5.43 -16.52,-8.3 z"
           inkscape:connector-curvature="0"
           style="fill:#464353" />
        <path
           id="path153"
           d="m 166.24205,777.66462 a 10.89,10.89 0 0 0 4.6,0.55 c 0.12,-1.27 1.82,-1.55 3.09,-1.49 a 3.55,3.55 0 0 1 1.77,0.41 c 0.32,0.2 0.56,0.5 0.88,0.71 a 3.68,3.68 0 0 0 1.8,0.46 l 6.61,0.56 c 2.95,0.25 6,0.48 8.79,-0.58 a 2.89,2.89 0 0 0 1.4,-0.94 c 0.75,-1.07 0,-2.61 -1,-3.39 -1,-0.78 -2.37,-1.14 -3.42,-1.94 -2.29,-1.75 -2.61,-5 -3.83,-7.64 a 22.05,22.05 0 0 0 -3.16,-4.59 17.52,17.52 0 0 0 -3.12,-3.2 c -2.66,-1.92 -5.71,-1.88 -8.82,-2.15 -2.21,-0.2 -4.28,-0.33 -5.85,1.62 -2,2.42 -1.18,7.3 -1.06,10.19 a 74.3,74.3 0 0 0 1.32,11.42 z"
           inkscape:connector-curvature="0"
           style="fill:#514e7f" />
        <rect
           id="rect155"
           height="78.029999"
           width="78.029999"
           y="661.67462"
           x="249.74205"
           style="fill:#ffffff" />
        <circle
           id="circle157"
           r="15.25"
           cy="581.78467"
           cx="234.48206"
           style="fill:#a1616a" />
        <path
           id="path159"
           d="m 220.10205,586.30462 c -2.19,1.89 -5.32,2 -8.19,2.32 a 51.19,51.19 0 0 0 -17.62,5.1 6.29,6.29 0 0 0 -2,1.4 5.77,5.77 0 0 0 -1,2.18 14.42,14.42 0 0 0 -0.58,5.3 15.28,15.28 0 0 0 1.47,5 26.84,26.84 0 0 0 9.46,10.78 6.87,6.87 0 0 0 2.3,1.1 c 2,0.42 3.95,-0.75 5.92,-1.27 a 9.7,9.7 0 0 1 5.47,0.18 c 1.66,0.55 3.41,1.56 5,0.89 a 5.22,5.22 0 0 0 2.28,-2.59 87.89,87.89 0 0 0 4.16,-9.11 34.52,34.52 0 0 1 1.51,-3.54 c 1.77,-3.37 4.83,-6 6.35,-9.46 a 2.08,2.08 0 0 0 0.14,-1.78 2.47,2.47 0 0 0 -1.12,-0.86 26.73,26.73 0 0 1 -6.09,-4.78 c -1,-1 -2.85,-3.56 -4.29,-3.79 -1.58,-0.21 -2.07,1.99 -3.17,2.93 z"
           inkscape:connector-curvature="0"
           style="fill:#a1616a" />
        <path
           id="path161"
           d="m 220.46205,617.29462 c -1.77,0.85 -3.85,0.47 -5.77,0.07 -4.94,-1 -9.93,-2.08 -14.5,-4.22 a 7.76,7.76 0 0 1 -3.56,-2.73 8.73,8.73 0 0 1 -1,-3.42 l -0.84,-5.67 c -0.29,-2 0.22,-3.82 0.26,-5.82 a 1.7,1.7 0 0 0 -0.33,-1.27 1.37,1.37 0 0 0 -1,-0.31 c -2.29,0 -3.67,2.43 -5.28,4.06 a 9.75,9.75 0 0 1 -3.24,2.18 c -1.47,0.6 -3.28,1 -3.87,2.49 -0.25,0.61 -0.22,1.31 -0.47,1.92 -1,2.44 -5.4,1.63 -6.51,4 -0.32,0.68 -0.3,1.54 -0.83,2.08 -0.53,0.54 -1.5,0.52 -2.3,0.66 -3.18,0.52 -4.73,4.2 -7.45,5.93 -2.29,1.46 -5.24,1.43 -7.7,2.57 a 29.48,29.48 0 0 1 -4,2 18.9,18.9 0 0 1 -4.64,0.23 1.25,1.25 0 0 0 -0.93,0.3 1.28,1.28 0 0 0 -0.15,1 28.07,28.07 0 0 0 17.35,21.73 6.12,6.12 0 0 1 1.48,0.71 c 1.39,1 1.63,3.27 3.2,4 a 3.31,3.31 0 0 0 3.34,-0.72 29.05,29.05 0 0 0 2.41,-2.66 9.6,9.6 0 0 1 5.37,-2.82 c 1.89,-0.3 4,-0.08 5.53,-1.24 a 17,17 0 0 0 1.74,-1.86 10.91,10.91 0 0 1 4,-2.36 40,40 0 0 1 12.5,-2.64 c 4,-0.23 8.15,0.14 11.94,-1.17 a 7,7 0 0 0 2.66,-1.5 8,8 0 0 0 1.78,-3.09 23.59,23.59 0 0 0 0.81,-12.43 z"
           inkscape:connector-curvature="0"
           style="fill:#514e7f" />
        <path
           id="path163"
           d="m 200.80205,594.82462 c 1.13,-0.1 2.26,0 3.39,0 1.33,0 2.64,-0.32 4,-0.33 a 9.86,9.86 0 0 1 9.3,7.08 1.8,1.8 0 0 1 0.06,1 0.71,0.71 0 0 1 -0.77,0.52 16.9,16.9 0 0 0 -1.71,-3.43 9.71,9.71 0 0 0 -5.12,-3.56 13.29,13.29 0 0 0 -6.3,-0.23 c -0.86,0.16 -1.71,0.39 -2.56,0.63 l -4.15,1.12 c -0.75,0.2 -1.5,0.41 -2.23,0.68 -0.56,0.2 -1.53,1 -2.08,1 -0.75,0 -0.14,-0.65 0.19,-1.09 a 5.34,5.34 0 0 1 2.66,-1.93 22.38,22.38 0 0 1 5.32,-1.46 z"
           inkscape:connector-curvature="0"
           style="fill:#514e7f" />
        <path
           id="path165"
           d="m 211.08205,640.63462 c 1,3.16 2,6.32 3.21,9.4 a 79.54,79.54 0 0 0 8.32,15.16 109.23,109.23 0 0 0 6.87,9 c 3.06,3.61 6.48,7.24 7.56,11.85 0.63,2.66 0.42,5.45 0.68,8.17 0.26,2.72 1.15,5.61 3.35,7.24 a 12.45,12.45 0 0 0 5.52,1.82 c 1.38,0.22 3.11,0.29 3.83,-0.91 a 3.41,3.41 0 0 0 0.38,-1.58 l 0.33,-4 c 0.08,-0.86 0.38,-2 1.24,-2 0.86,0 1.3,1.11 2,1.62 a 2.17,2.17 0 0 0 3,-1 5.07,5.07 0 0 0 0.08,-3.5 16.62,16.62 0 0 0 -8.51,-10.58 25.64,25.64 0 0 1 -4.16,-2.17 14,14 0 0 1 -3.27,-4.12 c -7.57,-12.45 -15.17,-25 -20.5,-38.51 a 28.49,28.49 0 0 1 -2.11,-7.59 49,49 0 0 1 0.33,-8 45.79,45.79 0 0 0 -1.29,-14.3 11.23,11.23 0 0 0 -1.37,-3.47 c -2.19,-3.34 -7.36,-3.83 -10.62,-1.53 a 10.94,10.94 0 0 0 -4.22,7.72 c -0.24,2.69 1.32,5.5 2.11,8 q 3.62,11.65 7.24,23.28 z"
           inkscape:connector-curvature="0"
           style="fill:#a1616a" />
        <path
           id="path167"
           d="m 256.67205,571.00462 c 0.12,-1.27 -1,-2.42 -2.31,-3.23 a 32.25,32.25 0 0 1 -3.92,-2.4 c -1.16,-1 -1.79,-2.31 -2.95,-3.31 a 13,13 0 0 0 -4.4,-2.19 33.4,33.4 0 0 0 -10.52,-1.89 18.53,18.53 0 0 0 -10.07,2.66 6,6 0 0 0 -1.71,1.59 7,7 0 0 0 -0.83,2.53 50,50 0 0 1 -2.63,8 c -1.13,2.88 -2.34,5.86 -5,8.08 -2.85,2.38 -7.22,3.75 -9.1,6.62 a 2.15,2.15 0 0 0 -0.41,1.85 c 0.27,0.72 1.14,1.21 1.93,1.67 4.63,2.66 8.62,6.1 10.68,10.22 a 11.85,11.85 0 0 1 -0.94,12.75 c -1.07,1.4 -2.55,3.06 -1.5,4.47 1.59,2.14 7.08,0.92 8.34,3.18 a 4.52,4.52 0 0 1 0.17,2.34 c 0,2.37 2.29,4.49 5.07,5.58 a 28.27,28.27 0 0 0 9.12,1.5 7.88,7.88 0 0 0 0.23,-5.9 2.36,2.36 0 0 1 -0.23,-1.34 3.22,3.22 0 0 1 1,-1.29 c 3.35,-3.16 2.64,-7.81 0.63,-11.56 -2.01,-3.75 -5.13,-7.19 -6.29,-11.14 -0.58,-2 -0.59,-4.17 1,-5.8 a 20.2,20.2 0 0 1 2.87,-2.1 10.91,10.91 0 0 0 4,-5 c 0.93,-2.6 0.79,-5.73 3.53,-7.45 2.74,-1.72 6.29,-1.16 9.18,-2.27 2.33,-0.93 4.88,-4.32 5.06,-6.17 z"
           inkscape:connector-curvature="0"
           style="fill:#464353" />
        <circle
           id="circle169"
           r="16.629999"
           cy="576.39465"
           cx="342.18204"
           style="fill:#fbbebe" />
        <path
           id="path171"
           d="m 357.15205,575.69462 a 21.56,21.56 0 0 0 13.8,9.65 l -1.25,4.54 c -2.16,7.82 -4.6,16.1 -10.64,21.52 a 10.06,10.06 0 0 0 -1.69,-7.78 29.46,29.46 0 0 0 -5.64,-5.9 l -9.57,-8.33 a 2.61,2.61 0 0 1 -0.72,-0.8 2.44,2.44 0 0 1 0,-1.82 c 1.22,-3.8 4.7,-6.17 7.52,-8.73 a 26.52,26.52 0 0 0 3.79,-4.41 c 1.96,-2.7 3.19,0.03 4.4,2.06 z"
           inkscape:connector-curvature="0"
           style="fill:#fbbebe" />
        <path
           id="path173"
           d="m 359.27205,597.20462 a 9,9 0 0 1 -0.49,3.67 2.58,2.58 0 0 1 -3,1.54 c 0.35,-0.79 -0.57,-1.69 -1.43,-1.59 a 2.69,2.69 0 0 0 -1.9,1.61 6,6 0 0 0 -0.55,3.72 c 0.27,1.58 1.18,3.09 0.94,4.67 -0.19,1.31 -1.16,2.62 -0.64,3.85 a 6.18,6.18 0 0 0 1.24,1.48 4.2,4.2 0 0 1 -0.45,5.76 l 13,0.25 c -0.48,2.17 0.5,4.39 1.61,6.31 a 39.73,39.73 0 0 0 29.62,19.34 2.58,2.58 0 0 0 -0.62,3.94 c 1.06,1.05 2.84,0.92 4.16,0.24 a 31.58,31.58 0 0 0 3.57,-2.67 10.91,10.91 0 0 1 7.32,-2 c 1.63,0.15 3.2,0.67 4.83,0.76 4.8,0.26 8.93,-3.2 13.52,-4.61 3.37,-1 7.18,-1 10,-3.14 1.22,-0.9 2.22,-2.38 1.86,-3.86 a 6.29,6.29 0 0 0 -1.4,-2.26 c -1.63,-2.11 -2.58,-4.64 -3.75,-7 a 41.79,41.79 0 0 0 -9.37,-12.54 82.71,82.71 0 0 0 -9.28,-7.05 15.71,15.71 0 0 0 -2.52,-1.51 25.81,25.81 0 0 1 -3.44,-1.4 c -1.53,-1 -2.4,-2.65 -3.57,-4 -2.57,-3 -6.52,-4.37 -9.69,-6.73 -2.12,-1.58 -4,-3.66 -6.53,-4.43 -1.23,-0.37 -2.55,-0.4 -3.78,-0.77 -2.8,-0.85 -4.84,-3.34 -7.59,-4.34 -2.17,-0.8 -4.57,-0.59 -6.87,-0.88 a 16,16 0 0 1 -7.06,-2.67 8.49,8.49 0 0 0 -2.28,-1.34 c -3.47,-1 -3.75,5.42 -4.08,7.66 -0.52,3.27 -1.38,6.62 -1.38,9.99 z"
           inkscape:connector-curvature="0"
           style="fill:#3f3d56" />
        <path
           id="path175"
           d="m 362.66205,618.91462 c 0.58,6.31 -4.19,12.43 -2.8,18.62 0.3,1.32 0.86,2.57 1.07,3.9 0.58,3.67 -1.61,7.14 -3.7,10.21 l -18,26.34 a 16,16 0 0 1 -2.56,3.17 c -3.44,3.05 -8.58,2.73 -13.09,3.65 a 22.41,22.41 0 0 0 -8.77,3.88 0.57,0.57 0 0 0 -0.11,0.78 7.52,7.52 0 0 0 6.52,3.06 c 0.47,0.62 0,1.54 -0.65,2 -1,0.67 -2.29,0.85 -2.48,2.48 a 2.78,2.78 0 0 0 0.32,1.65 5.12,5.12 0 0 0 3.15,2.18 c 6.21,1.9 12.92,-1.44 17.57,-6 4.65,-4.56 8,-10.27 12.56,-14.9 2.53,-2.56 5.4,-4.75 8,-7.23 5.19,-5 9.23,-11 13.13,-17 a 18.92,18.92 0 0 0 2.84,-5.79 c 0.48,-2.05 0.26,-4.23 0.82,-6.26 0.72,-2.67 2.67,-4.8 4.3,-7 3.19,-4.39 5.31,-9.75 4.89,-15.16 -0.42,-5.41 -3.77,-10.73 -8.86,-12.57 a 7.93,7.93 0 0 0 -5,-0.3 c -2.09,0.64 -3.63,2.37 -5.06,4 l -3.41,3.94 a 9.36,9.36 0 0 0 -2,3 3.15,3.15 0 0 0 0.7,3.35"
           inkscape:connector-curvature="0"
           style="fill:#fbbebe" />
        <path
           id="path177"
           d="m 371.74205,592.98462 c -2.36,0.14 -5,0.37 -6.63,2 a 9.26,9.26 0 0 0 -1.66,2.62 c -1.62,3.29 -3.2,6.74 -3.31,10.41 -0.1,2.93 0.75,5.8 1.2,8.7 0.37,2.41 -0.57,4.87 -0.75,7.31 a 49.91,49.91 0 0 0 9.44,-3.63 31.56,31.56 0 0 1 5.53,-2.87 c 2.81,-0.94 7.55,0.67 10.21,2 0.15,-1.88 -1.26,-5.15 -1.11,-7 a 7.67,7.67 0 0 1 0.42,-2.33 13.89,13.89 0 0 1 1.41,-2.25 9.21,9.21 0 0 0 -0.83,-10.81 c -2.37,-2.67 -6.09,-3.67 -9.64,-4.09 a 42.16,42.16 0 0 0 -6.74,-0.23"
           inkscape:connector-curvature="0"
           style="fill:#3f3d56" />
        <path
           id="path179"
           d="m 320.27205,559.67462 -0.38,-3.13 c 2.63,0.67 5.12,-1.55 6.8,-3.86 1.68,-2.31 3.23,-5 5.78,-6 3.11,-1.17 6.4,0.7 9.37,2.24 a 29.33,29.33 0 0 0 10.75,3.56 7.61,7.61 0 0 1 1.78,0.29 c 1.93,0.69 2.85,3.11 3.13,5.31 0.28,2.2 0.2,4.54 1.15,6.5 0.73,1.48 2,2.59 2.72,4 2,3.93 0.07,9.31 2.22,13.17 l -5.33,-4.88 c -0.49,-0.45 -1.18,-0.92 -1.71,-0.54 -0.53,0.38 -0.46,1 -0.64,1.47 a 2.79,2.79 0 0 1 -3.79,1.38 10.39,10.39 0 0 1 -3.39,-3.1 20.72,20.72 0 0 0 -8.46,-6.41 10.81,10.81 0 0 0 -8.95,0.53 c -2.49,1.41 -4.31,4.68 -7.36,4.79 -4.18,0.16 -5.92,-7.62 -7.85,-10.69 a 3.79,3.79 0 0 0 1.1,-4.72 c 0.29,-0.1 3,-0.39 3.06,0.09 z"
           inkscape:connector-curvature="0"
           style="fill:#464353" />
        <path
           id="path187"
           d="m 300.94205,676.48462 h -32.08 a 2,2 0 0 0 -2,2 v 32.09 a 2,2 0 0 0 2,2 h 16 v -14.29 h -4.31 v -5.26 h 4.39 v -3.89 c 0,-4.65 3.23,-7.19 7.39,-7.19 2,0 4.14,0.15 4.63,0.22 v 4.86 h -3.31 c -2.26,0 -2.7,1.07 -2.7,2.65 v 3.35 h 5.39 l -0.7,5.26 h -4.7 v 14.28 h 10 a 2,2 0 0 0 2,-2 v -32.08 a 2,2 0 0 0 -2,-2 z"
           inkscape:connector-curvature="0"
           style="fill:#4780d6;fill-opacity:1" />
      </g>
    </g>
    <ellipse
       style="opacity:0.31300001;fill:#373748;stroke-width:1"
       id="ellipse35-3"
       ry="11.759708"
       rx="59.705734"
       cy="678.60712"
       cx="842.8429" />
    <path
       inkscape:connector-curvature="0"
       id="path817"
       d="m 806.56298,578.81398 c 0,0 3.65229,1.48396 9.6289,9.01789 0,0 7.74727,-1.82641 10.73549,0.22828 0,0 6.75137,-8.33296 9.85029,-9.36031 0,0 4.42706,2.62545 4.09495,20.88952 0,0 -0.22125,10.95843 -5.97644,14.38294 0,0 3.54158,8.10468 8.85411,11.7575 0,0 11.95304,11.98579 11.62093,22.83007 0,0 0.44281,9.58863 -1.10673,14.61124 0,0 9.07552,-0.34244 11.28897,1.82641 0,0 11.17827,2.73961 10.07155,12.32824 0,0 -0.77478,8.90373 -11.17827,7.19147 0,0 -3.8737,-2.85375 0,-4.56601 0,0 4.42705,-1.8264 3.20962,-5.13676 0,0 -1.88149,-3.31037 -12.72781,-3.65282 0,0 -3.32033,0 -6.7512,0.57075 l -3.09892,0.79906 v 0 c 0,0 -8.52216,1.82641 -12.61711,-1.5981 0,0 -0.66406,3.31036 -5.31253,2.9679 0,0 -4.31636,1.71227 -5.31237,-2.5113 0,0 -3.6525,4.79431 -8.96487,1.71224 0,0 -3.76299,-1.14149 -0.22141,-5.59336 0,0 -3.09893,-22.14517 -3.98441,-34.81587 0,0 -0.6639,-10.50184 0.77478,-17.35086 0,0 -7.08315,-3.53866 -6.86191,-22.37347 0,0 1.21742,-12.09995 3.98439,-14.15465 z"
       style="fill:#1a1a1a;stroke:#000000;stroke-width:0;stroke-linecap:butt;stroke-linejoin:miter;stroke-miterlimit:4;stroke-dasharray:none;stroke-opacity:1" />
  </g>
</svg>
