<?xml version="1.0" encoding="UTF-8" standalone="no"?>
<svg
   xmlns:dc="http://purl.org/dc/elements/1.1/"
   xmlns:cc="http://creativecommons.org/ns#"
   xmlns:rdf="http://www.w3.org/1999/02/22-rdf-syntax-ns#"
   xmlns:svg="http://www.w3.org/2000/svg"
   xmlns="http://www.w3.org/2000/svg"
   xmlns:xlink="http://www.w3.org/1999/xlink"
   xmlns:sodipodi="http://sodipodi.sourceforge.net/DTD/sodipodi-0.dtd"
   xmlns:inkscape="http://www.inkscape.org/namespaces/inkscape"
   inkscape:version="1.0 (4035a4fb49, 2020-05-01)"
   sodipodi:docname="bg12.svg"
   version="1.1"
   viewBox="0 0 1096.46 805.97"
   height="805.97"
   width="1096.46"
   data-name="Layer 1"
   id="b1711ec6-bb87-4a18-ab4e-434cd24277cb">
  <metadata
     id="metadata316">
    <rdf:RDF>
      <cc:Work
         rdf:about="">
        <dc:format>image/svg+xml</dc:format>
        <dc:type
           rdf:resource="http://purl.org/dc/dcmitype/StillImage" />
        <dc:title>social dashboard</dc:title>
      </cc:Work>
    </rdf:RDF>
  </metadata>
  <sodipodi:namedview
     inkscape:document-rotation="0"
     inkscape:snap-global="false"
     inkscape:current-layer="layer1"
     inkscape:window-maximized="1"
     inkscape:window-y="34"
     inkscape:window-x="0"
     inkscape:cy="327.37948"
     inkscape:cx="461.29208"
     inkscape:zoom="0.9050967"
     showgrid="false"
     id="namedview314"
     inkscape:window-height="704"
     inkscape:window-width="1366"
     inkscape:pageshadow="2"
     inkscape:pageopacity="0"
     guidetolerance="10"
     gridtolerance="10"
     objecttolerance="10"
     borderopacity="1"
     bordercolor="#666666"
     pagecolor="#ffffff" />
  <defs
     id="defs9">
    <linearGradient
       id="linearGradient1057"
       inkscape:collect="always">
      <stop
         id="stop1053"
         offset="0"
         style="stop-color:#de69d5;stop-opacity:1" />
      <stop
         id="stop1055"
         offset="1"
         style="stop-color:#ff1bc5;stop-opacity:1" />
    </linearGradient>
    <linearGradient
       gradientTransform="matrix(1,0,0,1.0177556,-51.769999,-58.053345)"
       gradientUnits="userSpaceOnUse"
       y2="548.12"
       x2="699.46"
       y1="848.78"
       x1="699.46"
       id="a89cccf1-5da0-4e25-a4c3-8abfdc3a3dc7">
      <stop
         id="stop2"
         stop-opacity="0.25"
         stop-color="gray"
         offset="0" />
      <stop
         id="stop4"
         stop-opacity="0.12"
         stop-color="gray"
         offset="0.54" />
      <stop
         id="stop6"
         stop-opacity="0.1"
         stop-color="gray"
         offset="1" />
    </linearGradient>
    <linearGradient
       gradientUnits="userSpaceOnUse"
       y2="450.89996"
       x2="587.19348"
       y1="463.92014"
       x1="573.25714"
       id="linearGradient1059"
       xlink:href="#linearGradient1057"
       inkscape:collect="always" />
  </defs>
  <title
     id="title11">social dashboard</title>
  <g
     inkscape:label="Layer 1"
     id="layer1"
     inkscape:groupmode="layer">
    <path
       id="path4"
       d="m 871.82538,711.61804 c 0,25.68 -138.79,46.5 -310,46.5 -171.21,0 -310,-20.82 -310,-46.5 0,-18.18 69.57,-33.93 170.96,-41.57 41.81,-3.16 89.05,-4.93 139.04,-4.93 20.55,0 40.63,0.3 60.05,0.87 142.47,4.2 249.95,23.0299 249.95,45.63 z"
       style="fill:#3f3d56"
       inkscape:connector-curvature="0" />
    <ellipse
       id="ellipse6"
       ry="14.5"
       rx="119"
       cy="706.61804"
       cx="521.82538"
       style="opacity:0.1" />
    <ellipse
       id="ellipse8"
       ry="120"
       rx="112.5"
       cy="597.11804"
       cx="521.32538"
       style="fill:#3f3d56" />
    <rect
       id="rect10"
       height="64"
       width="70"
       y="668.11804"
       x="486.82538"
       style="fill:#38d39f" />
    <polygon
       transform="translate(251.82538,76.004482)"
       id="polygon12"
       points="396.5,607.614 392.5,629.614 418.5,633.614 435.5,623.614 434.5,607.614 "
       style="fill:#575a89" />
    <path
       id="path14"
       d="m 517.32538,270.61802 c 0,0 -2,23 -7,24 -5,1 11,41 11,41 h 24 l 19,-5 -9,-22 c 0,0 -12,-16 -3,-29 9,-13 -35,-9 -35,-9 z"
       style="fill:#a0616a"
       inkscape:connector-curvature="0" />
    <path
       id="path16"
       d="m 517.32538,270.61802 c 0,0 -2,23 -7,24 -5,1 11,41 11,41 h 24 l 19,-5 -9,-22 c 0,0 -12,-16 -3,-29 9,-13 -35,-9 -35,-9 z"
       style="opacity:0.1"
       inkscape:connector-curvature="0" />
    <path
       id="path18"
       d="m 467.32538,446.61804 c 0,0 -26,50 -5,60 21,10 26,9 26,12 0,3 -4,2 -2,7 2,5 -4,25 2,37 6,12 4,21 4,21 0,0 0,1 2,5 2,4 3,7 2,9 -1,2 -7,15 -1,18 6,3 37,5 40,0 3,-5 -3,-8 0,-11 3,-3 5,-4 3,-6 -2,-2 -4,-27 -4,-27 0,0 5,-29 3,-33 -2,-4 -5,-8 -3,-11 2,-3 4,-2 5,-6 1,-4 3,-13 3,-13 l 11,-1 26,5 c 0,0 29,32 61,42 0,0 9,9 12,9 3,0 3,0 2,2 -1,2 -4,2 -2,4 2,2 5,-1 3,2 -2,3 -4,3 -2,5 2,2 -1,13 -1,14 0,1 -9,95 -6,97 3,2 45,8 48,0 3,-8 -2,-18 -2,-18 0,0 15,-120 11,-128 -4,-8 -18,-44 -93,-67 0,0 -21,-4 -21,-7 0,-3 -2,-22 -6,-23 -4,-1 -27,-2 -27,-2 l -29,9 -40,-7 z"
       style="fill:#2f2e41"
       inkscape:connector-curvature="0" />
    <path
       id="path20"
       d="m 502.32538,614.61804 -5,18 c 0,0 -4,29 1,36 3.9274,5.4983 10.9396,12.2306 23.9445,13.4122 a 16.07115,16.07115 0 0 0 16.7785,-11.1178 5.00653,5.00653 0 0 0 0.277,-1.2944 c 0,-2 -3,-26 -3,-26 l -5,-25 -1,-7 z"
       style="fill:#2f2e41"
       inkscape:connector-curvature="0" />
    <path
       id="path22"
       d="m 648.32538,700.61804 c 0,0 -5,-5 -6,0 -1,5 -5,26 2,27 7,1 74,11 81,7 7,-4 20,-10 12,-13 -8,-3 -31,-12 -31,-12 0,0 -13,-17 -15,-18 -2,-1 -13,1 -18,5 -5,4 -25,4 -25,4 z"
       style="fill:#2f2e41"
       inkscape:connector-curvature="0" />
    <circle
       id="circle24"
       r="31"
       cy="260.61801"
       cx="541.32538"
       style="fill:#a0616a" />
    <path
       id="path26"
       d="m 538.32538,330.61802 -12,-13 -13.3015,-26 c 0,0 -9.6985,-3 -11.6985,2 -2,5 -38,21 -38,21 0,0 9,84.00002 5,92.00002 -4,8 -11,40 -5,43 6,3 34,0 43,4 9,4 35,4 42,-1 7,-5 9,-9 16,-6 5.9593,2.554 19.8907,-84.761 23.9016,-110.78102 a 11.844,11.844 0 0 0 -4.908,-11.50971 c -8.9728,-6.29384 -25.1328,-17.13965 -27.9936,-15.70925 -4,1.99996 -17,21.99996 -17,21.99996 z"
       style="fill:#575a89"
       inkscape:connector-curvature="0" />
    <path
       id="path28"
       d="m 581.32538,326.61802 v 0 a 11.85952,11.85952 0 0 1 8.9106,10.19577 l 8.0894,72.80425 c 0,0 -20,43 -30,14 -10,-29 13,-97.00002 13,-97.00002 z"
       style="fill:#575a89"
       inkscape:connector-curvature="0" />
    <path
       id="path30"
       d="m 579.32538,416.61804 22,-6 c 0,0 4,28 8,28 4,0 -14,16 -23,14 -9,-2 -22,-9 -23,-14 -1,-5 9,-26 9,-26 z"
       style="fill:#575a89"
       inkscape:connector-curvature="0" />
    <path
       id="path32"
       d="m 517.92368,273.99099 c 2.1079,-4.648 1.7419,-10.06966 3.4846,-14.86653 a 17.72716,17.72716 0 0 1 26.9532,-8.38071 c 2.2417,1.59841 4.4892,3.84417 7.2256,3.539 2.9467,-0.32859 5.575,-3.61593 8.2842,-2.41116 3.0027,1.33533 2.1917,6.71676 5.2339,7.95972 1.6013,0.65426 3.4935,-0.35311 4.4171,-1.8157 a 11.2246,11.2246 0 0 0 1.2858,-4.97622 c 0.4198,-4.26508 0.7991,-8.779 -1.0506,-12.64493 a 30.28893,30.28893 0 0 1 -2.0283,-4.08992 13.99385,13.99385 0 0 1 -0.3856,-4.03439 c -0.017,-5.01309 -0.3828,-10.24215 -2.9057,-14.57417 -2.7995,-4.80711 -7.9744,-7.881 -13.3732,-9.22227 -5.3988,-1.34127 -11.055,-1.13561 -16.5981,-0.66635 -9.1632,0.77574 -18.7193,2.43858 -25.9385,8.135 a 10.14728,10.14728 0 0 0 -2.4934,2.61953 13.525,13.525 0 0 0 -1.3281,3.84148 79.44958,79.44958 0 0 1 -6.9677,18.27716 39.65627,39.65627 0 0 0 -3.5954,7.76544 c -0.7656,2.75442 -0.7139,5.89343 0.8887,8.26085 1.3048,1.92745 3.3907,2.95463 5.0295,4.53044 1.6238,1.56146 2.3836,4.56438 4.1825,5.74673 1.5703,1.03215 3.4513,0.30356 5.0529,1.39752 2.0562,1.40453 2.2048,4.48417 4.6266,5.60948 z"
       style="fill:#2f2e41"
       inkscape:connector-curvature="0" />
    <path
       style="fill:#d5ffd5"
       id="path34"
       d="m 543.32538,345.61802 3,-6 c 0,0 44,13.00002 53,25.00002 0,0 22,-14 34,-12 l 12,2 -37,33 -47,-4 z"
       inkscape:connector-curvature="0" />
    <path
       id="path36"
       d="m 541.32538,339.61802 -41,57.00002 59,29 c 0,0 5.5157,3 9.7579,0 l 39.2421,-18 37,-53 -37,19 c 0,0 -4,-8 -12,-4 z"
       style="fill:#38d39f"
       inkscape:connector-curvature="0" />
    <path
       id="path38"
       d="m 604.32538,440.61804 8,-21 c 0,0 18,-23 8,-34 -10,-11 -21,32 -21,32 z"
       style="fill:#a0616a"
       inkscape:connector-curvature="0" />
    <path
       id="path42"
       d="m 468.82538,336.11802 h -1 c 0,0 -15.5,-18.5 -18.5,6.5 -3,25.00002 -13,108.00002 13,111.00002 26,3 44.5,-12.5 44.5,-12.5 0,0 19,-29 12,-29 -3.3869,0 -12.5984,-1.5212 -21,-1 -8.9627,0.556 -17.0162,3.0808 -16.5,0.5 1,-5 15.5,-68.50002 -12.5,-75.50002 z"
       style="opacity:0.1"
       inkscape:connector-curvature="0" />
    <polygon
       transform="translate(251.82538,76.004482)"
       id="polygon46"
       points="349.027,336.213 356,364.114 338,372.114 338,353.114 "
       style="fill:#575a89" />
    <rect
       style="fill:#5fd38d"
       id="rect50"
       height="64"
       width="64"
       y="362.11801"
       x="331.29852" />
    <polygon
       transform="translate(251.82538,76.004482)"
       style="fill:#5fd38d"
       id="polygon52"
       points="355.801,28.057 372,0 388.199,28.057 404.397,56.114 372,56.114 339.603,56.114 " />
    <path
       id="path54"
       d="m 906.06198,244.23351 q -0.5808,17.95539 -8.7452,28.78352 -8.1657,10.82931 -19.4014,10.83029 -9.1518,0 -16.0424,-10.59861 -6.8929,-10.5984 -6.892,-32.60592 0,-4.8648 0.2317,-9.26642 0.2309,-4.40064 0.5792,-8.33968 l 4.0541,-38.108 h -26.7569 q -6.9494,72.27771 -11.4091,86.00356 -4.4602,13.72556 -15.1157,13.726 a 12.78019,12.78019 0 0 1 -8.5716,-3.59073 12.06434,12.06434 0 0 1 -4.0541,-9.4983 q 0,-5.326 8.3976,-14.884 8.3972,-9.55611 9.3244,-17.43233 l 6.9497,-54.32423 h -11.2351 a 19.9108,19.9108 0 0 0 -9.0927,2.25854 17.15586,17.15586 0 0 0 -6.5445,5.27024 l -4.9808,7.41313 h -4.0541 q 5.6741,-17.6052 13.9576,-26.46706 8.28,-8.86106 19.054,-8.861 h 88.4942 v 20.38611 h -29.8842 q -1.3901,13.89963 -2.1429,27.799 -0.7546,13.89963 -0.7528,27.9151 0,9.499 4.4016,15.40548 4.4007,5.90738 11.0039,5.90718 4.0531,0 8.5134,-3.30132 a 11.97,11.97 0 0 0 5.0386,-8.62908 q 0.3475,-2.54667 0.5211,-3.99618 0.1738,-1.44695 0.174,-1.79536 z"
       style="fill:#38d39f"
       inkscape:connector-curvature="0" />
    <path
       id="path56"
       d="m 906.06198,244.23351 q -0.5808,17.95539 -8.7452,28.78352 -8.1657,10.82931 -19.4014,10.83029 -9.1518,0 -16.0424,-10.59861 -6.8929,-10.5984 -6.892,-32.60592 0,-4.8648 0.2317,-9.26642 0.2309,-4.40064 0.5792,-8.33968 l 4.0541,-38.108 h -26.7569 q -6.9494,72.27771 -11.4091,86.00356 -4.4602,13.72556 -15.1157,13.726 a 12.78019,12.78019 0 0 1 -8.5716,-3.59073 12.06434,12.06434 0 0 1 -4.0541,-9.4983 q 0,-5.326 8.3976,-14.884 8.3972,-9.55611 9.3244,-17.43233 l 6.9497,-54.32423 h -11.2351 a 19.9108,19.9108 0 0 0 -9.0927,2.25854 17.15586,17.15586 0 0 0 -6.5445,5.27024 l -4.9808,7.41313 h -4.0541 q 5.6741,-17.6052 13.9576,-26.46706 8.28,-8.86106 19.054,-8.861 h 88.4942 v 20.38611 h -29.8842 q -1.3901,13.89963 -2.1429,27.799 -0.7546,13.89963 -0.7528,27.9151 0,9.499 4.4016,15.40548 4.4007,5.90738 11.0039,5.90718 4.0531,0 8.5134,-3.30132 a 11.97,11.97 0 0 0 5.0386,-8.62908 q 0.3475,-2.54667 0.5211,-3.99618 0.1738,-1.44695 0.174,-1.79536 z"
       style="opacity:0.1"
       inkscape:connector-curvature="0" />
    <path
       id="path58"
       d="m 906.06198,240.61451 q -0.5808,17.95539 -8.7452,28.78352 -8.1657,10.82931 -19.4014,10.83029 -9.1518,0 -16.0424,-10.5986 -6.8929,-10.59841 -6.892,-32.60593 0,-4.8648 0.2317,-9.26642 0.2309,-4.40064 0.5792,-8.33967 l 4.0541,-38.10806 h -26.7569 q -6.9494,72.27776 -11.4091,86.00361 -4.4602,13.72557 -15.1157,13.726 a 12.78019,12.78019 0 0 1 -8.5716,-3.59073 12.06432,12.06432 0 0 1 -4.0541,-9.49829 q 0,-5.326 8.3976,-14.884 8.3972,-9.55612 9.3244,-17.43233 l 6.9497,-54.32424 h -11.2351 a 19.9108,19.9108 0 0 0 -9.0927,2.25854 17.15586,17.15586 0 0 0 -6.5445,5.27024 l -4.9808,7.41314 h -4.0541 q 5.6741,-17.60522 13.9576,-26.46706 8.28,-8.86107 19.054,-8.861 h 88.4942 v 20.38611 h -29.8842 q -1.3901,13.89963 -2.1429,27.79906 -0.7546,13.89962 -0.7528,27.91509 0,9.499 4.4016,15.40548 4.4007,5.90738 11.0039,5.90718 4.0531,0 8.5134,-3.30132 a 11.97,11.97 0 0 0 5.0386,-8.62908 q 0.3475,-2.54667 0.5211,-3.99617 0.1738,-1.447 0.174,-1.79537 z"
       style="fill:#38d39f"
       inkscape:connector-curvature="0" />
    <path
       id="path40"
       d="m 512.02308,437.26684 17.4562,-14.152 c 0,0 27.11,-10.865 23.9785,-25.3975 -3.1315,-14.5325 -34.2205,17.1451 -34.2205,17.1451 z"
       style="fill:#a0616a"
       inkscape:connector-curvature="0" />
    <path
       id="path44"
       d="m 467.32538,316.61802 -4,-2 c 0,0 -16,3 -19,28 -3,25.00002 -13,108.00002 13,111.00002 26,3 61,-4 61,-4 0,0 7,-38 0,-38 -7,0 -43,5 -42,0 1,-5 19,-88.00002 -9,-95.00002 z"
       style="fill:#575a89"
       inkscape:connector-curvature="0" />
  </g>
</svg>
